<svg width="750" height="520" viewBox="0 0 750 520" fill="none" xmlns="http://www.w3.org/2000/svg">
<path fill-rule="evenodd" clip-rule="evenodd" d="M708.333 0H0V520H708.333V416H750V104H708.333V0Z" fill="#80F0FF"/>
<path fill-rule="evenodd" clip-rule="evenodd" d="M708.333 0H0V520H708.333V416H750V104H708.333V0Z" fill="#4DD4FF"/>
<path fill-rule="evenodd" clip-rule="evenodd" d="M708.333 0H0V520H708.333V416H750V104H708.333V0Z" fill="#60D9FF"/>
<path d="M66.566 104.634H11.288V221H68.724C96.114 221 113.544 208.55 113.544 188.63C113.544 173.69 104.414 162.236 89.64 159.248C101.924 155.928 109.726 146.134 109.726 134.016C109.726 116.088 92.96 104.634 66.566 104.634ZM64.906 150.948H41.666V128.372H64.906C73.372 128.206 78.518 132.356 78.518 139.328C78.518 146.632 73.372 150.948 64.906 150.948ZM64.906 197.428H41.666V173.026H64.906C75.53 172.86 82.17 177.508 82.17 184.812C82.17 192.78 75.53 197.428 64.906 197.428ZM188.214 131.194V175.516C188.214 187.302 181.906 195.602 171.448 195.768C162.65 195.768 157.006 189.626 157.006 179.5V131.194H127.458V187.966C127.458 208.882 140.074 222.328 159.496 222.328C172.278 222.162 182.072 216.85 188.214 206.392V221H217.762V131.194H188.214ZM300.275 159.58L310.235 140.324C298.947 133.518 285.833 129.866 272.885 129.866C251.803 129.866 236.033 140.158 236.033 158.916C236.033 189.958 282.347 183.816 282.347 196.1C282.347 199.752 278.363 201.578 272.885 201.578C262.925 201.578 251.305 197.594 241.013 190.456L231.717 209.546C242.673 218.012 257.115 222.328 272.221 222.328C294.133 222.328 310.235 211.87 310.235 193.444C310.401 162.236 263.257 167.88 263.257 156.094C263.257 152.276 266.743 150.45 271.723 150.45C279.027 150.45 289.153 153.77 300.275 159.58ZM366.608 130.032C351.834 130.032 338.886 133.518 324.776 139.826L332.91 159.746C342.538 155.098 352.332 152.608 359.802 152.608C371.09 152.608 376.9 157.588 376.9 166.054V167.05H353.494C331.25 167.382 319.132 177.176 319.132 194.274C319.132 210.708 330.586 222.328 349.842 222.328C361.96 222.328 371.09 218.344 376.9 210.874V221H405.95V162.568C405.784 141.984 391.342 130.032 366.608 130.032ZM358.972 202.242C351.336 202.242 346.854 198.258 346.854 192.116C346.854 185.808 351.004 182.82 359.304 182.82H376.9V190.622C375.074 197.428 367.77 202.242 358.972 202.242ZM485.064 130.032C471.95 130.032 461.658 135.51 455.35 145.802V131.194H425.802V221H455.35V173.524C456.512 163.398 462.986 156.592 472.946 156.426C482.242 156.426 488.218 162.734 488.218 172.86V221H517.6V164.394C517.6 143.312 504.652 130.032 485.064 130.032Z" transform="translate(62 93)" fill="black"/>
<rect width="615" height="31" transform="translate(0 83)" fill="black"/>
</svg>
