<svg width="168" height="168" viewBox="0 0 168 168" fill="none" xmlns="http://www.w3.org/2000/svg">
<g clip-path="url(#clip0)">
<path d="M28 56C43.464 56 56 43.464 56 28C56 12.536 43.464 0 28 0C12.536 0 0 12.536 0 28C0 43.464 12.536 56 28 56Z" transform="scale(3)" fill="#FF0000"/>
<path d="M0 0.120824V7.80966H1.73548V4.89888H5.20644V3.44899H1.73548V1.55973H5.51399L5.52497 0.120824H0Z" transform="translate(21.3111 72.0829) scale(3)" fill="white"/>
<path d="M9.10689 0.120824V7.80966H15.0822V6.37074H10.8424V4.66822H14.544V3.22931H10.8424V1.55973H14.9614V0.120824H9.10689Z" transform="translate(21.3111 72.0829) scale(3)" fill="white"/>
<path d="M19.0183 0.120824V7.80966H20.7537V0.120824H19.0183Z" transform="translate(21.3111 72.0829) scale(3)" fill="white"/>
<path d="M30.6048 2.52633L31.6153 1.28513C30.8574 0.494282 29.6931 0 28.5837 0C26.2551 0 24.4867 1.70253 24.4867 3.94327C24.4867 6.20598 26.2222 7.93048 28.5178 7.93048C29.6382 7.93048 30.8135 7.39226 31.6263 6.54649L30.6048 5.4371C30.0556 5.99729 29.2977 6.34878 28.6057 6.34878C27.2876 6.34878 26.2661 5.28333 26.2661 3.9213C26.2661 2.55928 27.2876 1.5158 28.6057 1.5158C29.3197 1.5158 30.0776 1.90024 30.6048 2.52633Z" transform="translate(21.3111 72.0829) scale(3)" fill="white"/>
<path d="M40.9156 7.80966H42.7719L39.4877 0.120824H37.6973L34.3582 7.80966H36.1486L36.7527 6.31583H40.3115L40.9156 7.80966ZM37.3239 4.92085L38.5431 1.93319L39.7513 4.92085H37.3239Z" transform="translate(21.3111 72.0829) scale(3)" fill="white"/>
</g>
<defs>
<clipPath id="clip0">
<rect width="56" height="56" fill="white" transform="scale(3)"/>
</clipPath>
</defs>
</svg>
