<svg width="822" height="822" viewBox="0 0 822 822" fill="none" xmlns="http://www.w3.org/2000/svg">
<path d="M411 822C637.989 822 822 637.989 822 411C822 184.011 637.989 0 411 0C184.011 0 0 184.011 0 411C0 637.989 184.011 822 411 822Z" fill="#FF0000"/>
<path d="M411 822C637.989 822 822 637.989 822 411C822 184.011 637.989 0 411 0C184.011 0 0 184.011 0 411C0 637.989 184.011 822 411 822Z" fill="url(#paint0_linear)"/>
<path d="M207 278V375.148H228.92V338.37H272.76V320.051H228.92V296.181H276.645L276.783 278H207Z" fill="white"/>
<path d="M322.025 278V375.148H343.945V278H322.025Z" fill="white"/>
<path d="M398.03 278V375.148H461.571V355.996H419.95V278H398.03Z" fill="white"/>
<path d="M507.094 278V375.148H526.794V309.504L554.541 365.294H568.692L596.3 309.504V375.148H616V278H591.722L561.755 337.677L531.511 278H507.094Z" fill="white"/>
<path d="M207 447V544.148H270.54V524.996H228.92V447H207Z" fill="white"/>
<path d="M323.063 447V544.148H344.983V447H323.063Z" fill="white"/>
<path d="M497.108 544.148L458.123 487.386L494.749 447H469.222L428.989 492.243V447H407.069V544.148H428.989V519.722L442.862 504.317L470.887 544.148H497.108Z" fill="white"/>
<path d="M541.874 447V544.148H617.346V525.967H563.794V504.456H610.548V486.275H563.794V465.181H615.819V447H541.874Z" fill="white"/>
<defs>
<linearGradient id="paint0_linear" x1="140" y1="-40" x2="757" y2="899.5" gradientUnits="userSpaceOnUse">
<stop stop-color="#FF7A00"/>
<stop offset="1" stop-color="#FF3D00"/>
</linearGradient>
</defs>
</svg>
