<svg width="228" height="56" viewBox="0 0 228 56" version="1.1" xmlns="http://www.w3.org/2000/svg" xmlns:xlink="http://www.w3.org/1999/xlink">
<title>icon_email_long2</title>
<desc>Created using Figma</desc>
<g id="Canvas" transform="matrix(2 0 0 2 15704 -11744)">
<clipPath id="clip-0" clip-rule="evenodd">
<path d="M -7852 5872L -7738 5872L -7738 5900L -7852 5900L -7852 5872Z" fill="#FFFFFF"/>
</clipPath>
<g id="icon_email_long2" clip-path="url(#clip-0)">
<g id="Group">
<g id="Rectangle">
<use xlink:href="#path0_stroke" transform="translate(-7839.88 5880)" fill="#FFFFFF"/>
</g>
<g id="Vector">
<use xlink:href="#path1_stroke" transform="translate(-7840 5880)" fill="#FFFFFF"/>
</g>
</g>
<g id="CONTACT">
<use xlink:href="#path2_fill" transform="translate(-7816 5879)" fill="#FFFFFF"/>
</g>
</g>
</g>
<defs>
<path id="path0_stroke" d="M 0 0L 0 -1C -0.552285 -1 -1 -0.552285 -1 2.22045e-16L 0 0ZM 17.7692 0L 18.7692 0C 18.7692 -0.552285 18.3215 -1 17.7692 -1L 17.7692 0ZM 17.7692 13L 17.7692 14C 18.3215 14 18.7692 13.5523 18.7692 13L 17.7692 13ZM 0 13L -1 13C -1 13.5523 -0.552285 14 2.22045e-16 14L 0 13ZM 0 1L 17.7692 1L 17.7692 -1L 0 -1L 0 1ZM 16.7692 0L 16.7692 13L 18.7692 13L 18.7692 0L 16.7692 0ZM 17.7692 12L 0 12L 0 14L 17.7692 14L 17.7692 12ZM 1 13L 1 0L -1 0L -1 13L 1 13Z"/>
<path id="path1_stroke" d="M 9 7L 8.38606 7.78935C 8.74717 8.07022 9.25283 8.07022 9.61394 7.78935L 9 7ZM -0.613941 0.789352L 8.38606 7.78935L 9.61394 6.21065L 0.613941 -0.789352L -0.613941 0.789352ZM 9.61394 7.78935L 18.6139 0.789352L 17.3861 -0.789352L 8.38606 6.21065L 9.61394 7.78935Z"/>
<path id="path2_fill" d="M 8.05 5.518L 9.534 3.726C 8.554 2.69 7.028 2.032 5.572 2.032C 2.576 2.032 0.322 4.188 0.322 7.072C 0.322 9.984 2.52 12.182 5.474 12.182C 6.93 12.182 8.498 11.454 9.548 10.348L 8.05 8.738C 7.364 9.438 6.426 9.886 5.614 9.886C 4.102 9.886 2.954 8.654 2.954 7.044C 2.954 5.42 4.102 4.202 5.614 4.202C 6.468 4.202 7.406 4.706 8.05 5.518ZM 15.1573 2.032C 12.1193 2.032 9.8513 4.174 9.8513 7.072C 9.8513 9.998 12.1193 12.182 15.1573 12.182C 18.1953 12.182 20.4633 9.984 20.4633 7.072C 20.4633 4.188 18.1953 2.032 15.1573 2.032ZM 15.1853 4.202C 16.6553 4.202 17.8313 5.448 17.8313 7.086C 17.8313 8.738 16.6553 9.998 15.1853 9.998C 13.7293 9.998 12.4833 8.738 12.4833 7.086C 12.4833 5.448 13.7153 4.202 15.1853 4.202ZM 28.4393 2.186L 28.4533 8.094L 23.9872 2.186L 21.7333 2.186L 21.7333 12L 24.1273 12L 24.1273 6.134L 28.5793 12L 30.8193 12L 30.8193 2.186L 28.4393 2.186ZM 31.8851 2.186L 31.8851 4.3L 34.7971 4.3L 34.7971 12L 37.3591 12L 37.3591 4.3L 40.2991 4.3L 40.2991 2.186L 31.8851 2.186ZM 47.496 12L 50.226 12L 46.11 2.186L 43.478 2.186L 39.264 12L 41.896 12L 42.582 10.264L 46.824 10.264L 47.496 12ZM 43.352 8.304L 44.724 4.804L 46.068 8.304L 43.352 8.304ZM 57.9523 5.518L 59.4363 3.726C 58.4563 2.69 56.9303 2.032 55.4743 2.032C 52.4783 2.032 50.2243 4.188 50.2243 7.072C 50.2243 9.984 52.4223 12.182 55.3763 12.182C 56.8323 12.182 58.4003 11.454 59.4503 10.348L 57.9523 8.738C 57.2663 9.438 56.3283 9.886 55.5163 9.886C 54.0043 9.886 52.8563 8.654 52.8563 7.044C 52.8563 5.42 54.0043 4.202 55.5163 4.202C 56.3703 4.202 57.3083 4.706 57.9523 5.518ZM 59.6937 2.186L 59.6937 4.3L 62.6057 4.3L 62.6057 12L 65.1677 12L 65.1677 4.3L 68.1077 4.3L 68.1077 2.186L 59.6937 2.186Z"/>
</defs>
</svg>
