<svg width="240" height="240" viewBox="0 0 240 240" fill="none" xmlns="http://www.w3.org/2000/svg">
<path d="M119.952 21.6233C152 21.6233 155.762 21.7662 168.429 22.3378C180.143 22.8617 186.476 24.8144 190.714 26.4814C196.333 28.6724 200.333 31.2443 204.524 35.4356C208.714 39.6269 211.333 43.6277 213.476 49.2479C215.095 53.4868 217.095 59.8214 217.619 71.538C218.19 84.2072 218.333 87.9698 218.333 120.024C218.333 152.078 218.19 155.84 217.619 168.51C217.095 180.226 215.143 186.561 213.476 190.8C211.286 196.42 208.714 200.421 204.524 204.612C200.333 208.803 196.333 211.423 190.714 213.566C186.476 215.186 180.143 217.186 168.429 217.71C155.762 218.281 152 218.424 119.952 218.424C87.9048 218.424 84.1429 218.281 71.4762 217.71C59.7619 217.186 53.4286 215.233 49.1905 213.566C43.5714 211.375 39.5714 208.803 35.381 204.612C31.1905 200.421 28.5714 196.42 26.4286 190.8C24.8095 186.561 22.8095 180.226 22.2857 168.51C21.7143 155.84 21.5714 152.078 21.5714 120.024C21.5714 87.9698 21.7143 84.2072 22.2857 71.538C22.8095 59.8214 24.7619 53.4868 26.4286 49.2479C28.619 43.6277 31.1905 39.6269 35.381 35.4356C39.5714 31.2443 43.5714 28.6247 49.1905 26.4814C53.4286 24.8621 59.7619 22.8617 71.4762 22.3378C84.1429 21.7186 87.9048 21.6233 119.952 21.6233ZM119.952 -4.54221e-08C87.3809 -4.54221e-08 83.2857 0.142885 70.4762 0.714427C57.7143 1.28597 49 3.33399 41.381 6.28696C33.4762 9.33519 26.8095 13.4789 20.1429 20.1469C13.4762 26.8148 9.38095 33.5305 6.28571 41.3892C3.33333 49.0097 1.28571 57.7257 0.714286 70.5378C0.142857 83.3022 -4.54131e-08 87.3983 -4.54131e-08 119.976C-4.54131e-08 152.554 0.142857 156.65 0.714286 169.462C1.28571 182.227 3.33333 190.943 6.28571 198.611C9.33333 206.517 13.4762 213.185 20.1429 219.853C26.8095 226.521 33.5238 230.617 41.381 233.713C49 236.666 57.7143 238.714 70.5238 239.286C83.3333 239.857 87.381 240 120 240C152.619 240 156.667 239.857 169.476 239.286C182.238 238.714 190.952 236.666 198.619 233.713C206.524 230.665 213.19 226.521 219.857 219.853C226.524 213.185 230.619 206.47 233.714 198.611C236.667 190.99 238.714 182.274 239.286 169.462C239.857 156.65 240 152.602 240 119.976C240 87.3507 239.857 83.3022 239.286 70.4902C238.714 57.7257 236.667 49.0097 233.714 41.3415C230.667 33.4352 226.524 26.7672 219.857 20.0992C213.19 13.4312 206.476 9.33519 198.619 6.23933C191 3.28637 182.286 1.23834 169.476 0.666799C156.619 0.142885 152.524 -4.54221e-08 119.952 -4.54221e-08Z" fill="white"/>
<path d="M119.953 58.3449C85.9525 58.3449 58.3335 85.9218 58.3335 119.976C58.3335 154.031 85.9525 181.607 119.953 181.607C153.953 181.607 181.572 153.983 181.572 119.976C181.572 85.9694 153.953 58.3449 119.953 58.3449ZM119.953 159.984C97.8573 159.984 79.9525 142.076 79.9525 119.976C79.9525 97.8766 97.8573 79.9682 119.953 79.9682C142.048 79.9682 159.953 97.8766 159.953 119.976C159.953 142.076 142.048 159.984 119.953 159.984Z" fill="white"/>
<path d="M184 70.2997C191.942 70.2997 198.381 63.8598 198.381 55.9159C198.381 47.9719 191.942 41.532 184 41.532C176.058 41.532 169.619 47.9719 169.619 55.9159C169.619 63.8598 176.058 70.2997 184 70.2997Z" fill="white"/>
</svg>
