<svg width="240" height="240" viewBox="0 0 240 240" fill="none" xmlns="http://www.w3.org/2000/svg">
<path d="M59.9762 10.8117C76 10.8117 77.8809 10.8831 84.2143 11.1689C90.0714 11.4308 93.2381 12.4072 95.3571 13.2407C98.1667 14.3362 100.167 15.6221 102.262 17.7178C104.357 19.8135 105.667 21.8139 106.738 24.6239C107.548 26.7434 108.548 29.9107 108.81 35.769C109.095 42.1036 109.167 43.9849 109.167 60.0119C109.167 76.0389 109.095 77.9202 108.81 84.2548C108.548 90.1131 107.571 93.2804 106.738 95.3999C105.643 98.21 104.357 100.21 102.262 102.306C100.167 104.402 98.1667 105.711 95.3571 106.783C93.2381 107.593 90.0714 108.593 84.2143 108.855C77.8809 109.141 76 109.212 59.9762 109.212C43.9524 109.212 42.0714 109.141 35.7381 108.855C29.881 108.593 26.7143 107.617 24.5952 106.783C21.7857 105.688 19.7857 104.402 17.6905 102.306C15.5952 100.21 14.2857 98.21 13.2143 95.3999C12.4048 93.2804 11.4048 90.1131 11.1429 84.2548C10.8571 77.9202 10.7857 76.0389 10.7857 60.0119C10.7857 43.9849 10.8571 42.1036 11.1429 35.769C11.4048 29.9107 12.381 26.7434 13.2143 24.6239C14.3095 21.8139 15.5952 19.8135 17.6905 17.7178C19.7857 15.6221 21.7857 14.3124 24.5952 13.2407C26.7143 12.431 29.881 11.4308 35.7381 11.1689C42.0714 10.8593 43.9524 10.8117 59.9762 10.8117ZM59.9762 -2.2711e-08C43.6905 -2.2711e-08 41.6429 0.0714427 35.2381 0.357214C28.8571 0.642985 24.5 1.667 20.6905 3.14348C16.7381 4.66759 13.4048 6.73943 10.0714 10.0734C6.7381 13.4074 4.69048 16.7652 3.14286 20.6946C1.66667 24.5049 0.642857 28.8629 0.357143 35.2689C0.0714285 41.6511 -2.27065e-08 43.6991 -2.27065e-08 59.9881C-2.27065e-08 76.277 0.0714285 78.3251 0.357143 84.7311C0.642857 91.1133 1.66667 95.4713 3.14286 99.3054C4.66667 103.259 6.7381 106.593 10.0714 109.927C13.4048 113.261 16.7619 115.309 20.6905 116.857C24.5 118.333 28.8571 119.357 35.2619 119.643C41.6667 119.929 43.6905 120 60 120C76.3095 120 78.3333 119.929 84.7381 119.643C91.119 119.357 95.4762 118.333 99.3095 116.857C103.262 115.332 106.595 113.261 109.929 109.927C113.262 106.593 115.31 103.235 116.857 99.3054C118.333 95.4951 119.357 91.1371 119.643 84.7311C119.929 78.3251 120 76.3009 120 59.9881C120 43.6753 119.929 41.6511 119.643 35.2451C119.357 28.8629 118.333 24.5049 116.857 20.6708C115.333 16.7176 113.262 13.3836 109.929 10.0496C106.595 6.71562 103.238 4.66759 99.3095 3.11967C95.5 1.64318 91.1429 0.61917 84.7381 0.333399C78.3095 0.0714427 76.2619 -2.2711e-08 59.9762 -2.2711e-08Z" transform="scale(2)" fill="black"/>
<path d="M30.8095 -3.63377e-07C13.8095 -3.63377e-07 -3.63305e-07 13.7884 -3.63305e-07 30.8156C-3.63305e-07 47.8428 13.8095 61.6313 30.8095 61.6313C47.8095 61.6313 61.619 47.819 61.619 30.8156C61.619 13.8123 47.8095 -3.63377e-07 30.8095 -3.63377e-07ZM30.8095 50.8196C19.7619 50.8196 10.8095 41.8654 10.8095 30.8156C10.8095 19.7658 19.7619 10.8117 30.8095 10.8117C41.8571 10.8117 50.8095 19.7658 50.8095 30.8156C50.8095 41.8654 41.8571 50.8196 30.8095 50.8196Z" transform="translate(58.3335 58.3449) scale(2)" fill="black"/>
<path d="M7.19048 14.3838C11.1617 14.3838 14.381 11.1639 14.381 7.1919C14.381 3.21993 11.1617 0 7.19048 0C3.21929 0 -2.90644e-06 3.21993 -2.90644e-06 7.1919C-2.90644e-06 11.1639 3.21929 14.3838 7.19048 14.3838Z" transform="translate(169.619 41.532) scale(2)" fill="black"/>
</svg>
