<svg width="118" height="118" viewBox="0 0 118 118" fill="none" xmlns="http://www.w3.org/2000/svg">
<mask id="mask0" mask-type="alpha" maskUnits="userSpaceOnUse" x="0" y="0" width="118" height="118">
<rect width="118" height="118" rx="28" fill="black"/>
</mask>
<g mask="url(#mask0)">
<rect width="1024" height="1024" fill="black"/>
<path fill-rule="evenodd" clip-rule="evenodd" d="M81.6244 0H0V59.9219H81.6244V47.9375H86.4258V11.9844H81.6244V0Z" transform="translate(15.7871 29.0391)" fill="#8FEBE5"/>
<path fill-rule="evenodd" clip-rule="evenodd" d="M81.6244 0H0V59.9219H81.6244V47.9375H86.4258V11.9844H81.6244V0Z" transform="translate(15.7871 29.0391)" fill="#FFC9E6"/>
<path d="M14.098 25L8.854 17.172L13.794 11.681H9.766L4.769 17.457V11.681H1.292V25H4.769V21.694L6.441 19.832L9.937 25H14.098ZM21.0714 26.007L25.4794 14.721H22.1164L19.9314 21.409L17.4804 14.721H14.0034L18.2594 24.753L18.0124 25.228C17.7464 25.741 17.3474 26.007 16.7774 26.007C16.2834 26.007 15.8844 25.836 15.4094 25.437L14.0034 27.774C14.9344 28.496 15.8844 28.838 17.0434 28.838C18.9814 28.838 20.2924 27.926 21.0714 26.007ZM31.0727 14.607C27.6907 14.607 25.4677 16.697 25.4677 19.851C25.4677 23.024 27.6907 25.114 31.0727 25.114C34.4547 25.114 36.6967 23.024 36.6967 19.851C36.6967 16.697 34.4547 14.607 31.0727 14.607ZM31.0727 17.343C32.4027 17.343 33.2957 18.369 33.2957 19.889C33.2957 21.428 32.4027 22.454 31.0727 22.454C29.7617 22.454 28.8687 21.428 28.8687 19.889C28.8687 18.369 29.7617 17.343 31.0727 17.343ZM44.4619 22.074C43.9679 22.283 43.5309 22.416 43.1889 22.416C42.5999 22.435 42.2579 22.093 42.2579 21.333V17.457H44.9179V15.215H42.2579V12.365H38.8949V15.215H37.4699V17.457H38.8949V21.865C38.8949 23.993 40.3389 25.171 42.3339 25.152C43.3409 25.152 44.3669 24.905 45.1079 24.468L44.4619 22.074ZM51.4272 14.607C48.0452 14.607 45.8222 16.697 45.8222 19.851C45.8222 23.024 48.0452 25.114 51.4272 25.114C54.8092 25.114 57.0512 23.024 57.0512 19.851C57.0512 16.697 54.8092 14.607 51.4272 14.607ZM51.4272 17.343C52.7572 17.343 53.6502 18.369 53.6502 19.889C53.6502 21.428 52.7572 22.454 51.4272 22.454C50.1162 22.454 49.2232 21.428 49.2232 19.889C49.2232 18.369 50.1162 17.343 51.4272 17.343Z" transform="translate(22.9316 39.7559)" fill="black"/>
<rect width="70.8691" height="3.57227" transform="translate(15.7871 38.6035)" fill="black"/>
</g>
</svg>
