<svg width="750" height="520" viewBox="0 0 750 520" fill="none" xmlns="http://www.w3.org/2000/svg">
<path fill-rule="evenodd" clip-rule="evenodd" d="M708.333 0H0V520H708.333V416H750V104H708.333V0Z" fill="#8FEBE5"/>
<path fill-rule="evenodd" clip-rule="evenodd" d="M708.333 0H0V520H708.333V416H750V104H708.333V0Z" fill="#FFC9E6"/>
<path d="M185.172 314L139.356 245.608L182.516 197.634H147.324L103.666 248.098V197.634H73.288V314H103.666V285.116L118.274 268.848L148.818 314H185.172ZM246.098 322.798L284.61 224.194H255.228L236.138 282.626L214.724 224.194H184.346L221.53 311.842L219.372 315.992C217.048 320.474 213.562 322.798 208.582 322.798C204.266 322.798 200.78 321.304 196.63 317.818L184.346 338.236C192.48 344.544 200.78 347.532 210.906 347.532C227.838 347.532 239.292 339.564 246.098 322.798ZM333.477 223.198C303.929 223.198 284.507 241.458 284.507 269.014C284.507 296.736 303.929 314.996 333.477 314.996C363.025 314.996 382.613 296.736 382.613 269.014C382.613 241.458 363.025 223.198 333.477 223.198ZM333.477 247.102C345.097 247.102 352.899 256.066 352.899 269.346C352.899 282.792 345.097 291.756 333.477 291.756C322.023 291.756 314.221 282.792 314.221 269.346C314.221 256.066 322.023 247.102 333.477 247.102ZM450.457 288.436C446.141 290.262 442.323 291.424 439.335 291.424C434.189 291.59 431.201 288.602 431.201 281.962V248.098H454.441V228.51H431.201V203.61H401.819V228.51H389.369V248.098H401.819V286.61C401.819 305.202 414.435 315.494 431.865 315.328C440.663 315.328 449.627 313.17 456.101 309.352L450.457 288.436ZM511.311 223.198C481.763 223.198 462.341 241.458 462.341 269.014C462.341 296.736 481.763 314.996 511.311 314.996C540.859 314.996 560.447 296.736 560.447 269.014C560.447 241.458 540.859 223.198 511.311 223.198ZM511.311 247.102C522.931 247.102 530.733 256.066 530.733 269.346C530.733 282.792 522.931 291.756 511.311 291.756C499.857 291.756 492.055 282.792 492.055 269.346C492.055 256.066 499.857 247.102 511.311 247.102Z" fill="black"/>
<rect y="83" width="615" height="31" fill="black"/>
</svg>
