<svg width="400" height="64" viewBox="0 0 400 64" version="1.1" xmlns="http://www.w3.org/2000/svg" xmlns:xlink="http://www.w3.org/1999/xlink">
<title>mm4_t</title>
<desc>Created using Figma</desc>
<g id="Canvas" transform="matrix(2 0 0 2 16156 -11294)">
<g id="mm4_t">
<g id="Group">
<g id="Vector">
<use xlink:href="#path0_fill" transform="translate(-8078 5647.36)" fill="#FFFFFF"/>
</g>
<g id="Vector">
<use xlink:href="#path1_fill" transform="translate(-8055.14 5647.36)" fill="#FFFFFF"/>
</g>
<g id="Vector">
<use xlink:href="#path2_fill" transform="translate(-8035.71 5647.36)" fill="#FFFFFF"/>
</g>
</g>
<g id="Group">
<g id="Vector">
<use xlink:href="#path3_fill" transform="translate(-8017.02 5647.36)" fill="#FFFFFF"/>
</g>
<g id="Vector">
<use xlink:href="#path4_fill" transform="translate(-7994.15 5647.36)" fill="#FFFFFF"/>
</g>
<g id="Vector">
<use xlink:href="#path5_fill" transform="translate(-7974.77 5647.36)" fill="#FFFFFF"/>
</g>
<g id="Vector">
<use xlink:href="#path6_fill" transform="translate(-7956.45 5647)" fill="#FFFFFF"/>
</g>
<g id="Vector">
<use xlink:href="#path7_fill" transform="translate(-7939.03 5647.36)" fill="#FFFFFF"/>
</g>
<g id="Vector">
<use xlink:href="#path8_fill" transform="translate(-7930.96 5647)" fill="#FFFFFF"/>
</g>
<g id="Vector">
<use xlink:href="#path9_fill" transform="translate(-7912.95 5647.36)" fill="#FFFFFF"/>
</g>
<g id="Vector">
<use xlink:href="#path10_fill" transform="translate(-7894.58 5647.36)" fill="#FFFFFF"/>
</g>
</g>
</g>
</g>
<defs>
<path id="path0_fill" d="M 10.3828 22.212L 10.4726 22.212L 13.7705 1.69104e-07L 20.5887 1.69104e-07L 20.5887 31.2819L 15.9528 31.2819L 15.9528 8.84965L 15.863 8.84965L 12.5666 31.2833L 7.93222 31.2833L 4.36766 9.16291L 4.27924 9.16291L 4.27924 31.2833L 0 31.2833L 0 1.69104e-07L 6.8182 1.69104e-07L 10.3828 22.212Z"/>
<path id="path1_fill" d="M 17.1597 31.2819L 12.2129 31.2819L 11.3656 25.6047L 5.34905 25.6047L 4.50175 31.2819L -6.85788e-07 31.2819L 4.99097 6.20047e-08L 12.1658 6.20047e-08L 17.1597 31.2819ZM 5.97384 21.3594L 10.6981 21.3594L 8.38165 5.53971L 8.29177 5.53971L 5.97384 21.3594Z"/>
<path id="path2_fill" d="M 3.14788e-07 1.69104e-07L 7.75539 1.69104e-07C 12.6579 1.69104e-07 15.0628 2.72627 15.0628 7.73107L 15.0628 23.5508C 15.0628 28.5556 12.6565 31.2819 7.75539 31.2819L 3.14788e-07 31.2819L 3.14788e-07 1.69104e-07ZM 4.90256 4.46989L 4.90256 26.812L 7.6655 26.812C 9.22601 26.812 10.1603 26.0096 10.1603 23.7724L 10.1603 7.50794C 10.1603 5.27226 9.22453 4.46841 7.6655 4.46841L 4.90256 4.46841L 4.90256 4.46989Z"/>
<path id="path3_fill" d="M 10.3857 22.212L 10.4756 22.212L 13.772 1.69104e-07L 20.5902 1.69104e-07L 20.5902 31.2819L 15.9543 31.2819L 15.9543 8.84965L 15.8644 8.84965L 12.5666 31.2833L 7.93074 31.2833L 4.36618 9.16291L 4.27777 9.16291L 4.27777 31.2833L -1.66388e-06 31.2833L -1.66388e-06 1.69104e-07L 6.8182 1.69104e-07L 10.3857 22.212Z"/>
<path id="path4_fill" d="M 17.1567 31.2819L 12.2115 31.2819L 11.3642 25.6047L 5.34758 25.6047L 4.50027 31.2819L 2.24849e-06 31.2819L 4.99097 6.20047e-08L 12.1658 6.20047e-08L 17.1567 31.2819ZM 5.97237 21.3594L 10.6966 21.3594L 8.3787 5.53971L 8.28882 5.53971L 5.97237 21.3594Z"/>
<path id="path5_fill" d="M 4.4988 8.62505L 4.41039 8.62505L 4.41039 31.2819L -1.16921e-06 31.2819L -1.16921e-06 1.69104e-07L 6.1492 1.69104e-07L 11.0945 18.7248L 11.1844 18.7248L 11.1844 1.69104e-07L 15.5535 1.69104e-07L 15.5535 31.2819L 10.5169 31.2819L 4.4988 8.62505Z"/>
<path id="path6_fill" d="M 7.35457 1.69104e-08C 12.123 1.69104e-08 14.5721 2.86073 14.5721 7.86553L 14.5721 8.84817L 9.93775 8.84817L 9.93775 7.55375C 9.93775 5.31954 9.04624 4.46989 7.48573 4.46989C 5.92522 4.46989 5.03665 5.31954 5.03665 7.55375C 5.03665 9.83229 6.01511 11.5301 9.22454 14.3465C 13.3255 17.9682 14.6178 20.56 14.6178 24.133C 14.6178 29.1407 12.123 32 7.30742 32C 2.49475 32 8.99395e-08 29.1393 8.99395e-08 24.133L 8.99395e-08 22.2135L 4.63437 22.2135L 4.63437 24.4477C 4.63437 26.6819 5.61577 27.4873 7.17628 27.4873C 8.73679 27.4873 9.71671 26.6819 9.71671 24.4477C 9.71671 22.1677 8.73678 20.4714 5.52735 17.6535C 1.42789 14.0347 0.1341 11.4414 0.1341 7.86701C 0.132626 2.86073 2.58463 1.69104e-08 7.35457 1.69104e-08Z"/>
<path id="path7_fill" d="M -4.40703e-06 1.69104e-07L 4.90403 1.69104e-07L 4.90403 31.2819L -4.40703e-06 31.2819L -4.40703e-06 1.69104e-07Z"/>
<path id="path8_fill" d="M 5.39637e-06 7.86553C 5.39637e-06 2.85925 2.62884 1.69104e-08 7.44299 1.69104e-08C 12.2557 1.69104e-08 14.886 2.86073 14.886 7.86553L 14.886 24.13C 14.886 29.1378 12.2557 31.997 7.44299 31.997C 2.62884 31.997 5.39637e-06 29.1363 5.39637e-06 24.13L 5.39637e-06 7.86553ZM 4.90109 24.4462C 4.90109 26.6805 5.88248 27.5286 7.44299 27.5286C 9.0035 27.5286 9.98342 26.6805 9.98342 24.4462L 9.98342 7.55375C 9.98342 5.31954 9.0035 4.46989 7.44299 4.46989C 5.88248 4.46989 4.90109 5.31954 4.90109 7.55375L 4.90109 24.4462Z"/>
<path id="path9_fill" d="M 4.50175 8.62505L 4.41186 8.62505L 4.41186 31.2819L -3.23782e-06 31.2819L -3.23782e-06 1.69104e-07L 6.15067 1.69104e-07L 11.096 18.7248L 11.1859 18.7248L 11.1859 1.69104e-07L 15.5535 1.69104e-07L 15.5535 31.2819L 10.5169 31.2819L 4.50175 8.62505Z"/>
<path id="path10_fill" d="M -1.43903e-06 21.1378L 8.9136 6.20047e-08L 14.2612 6.20047e-08L 14.2612 21.1378L 16.5791 21.1378L 16.5791 25.6047L 14.2612 25.6047L 14.2612 31.2819L 9.35862 31.2819L 9.35862 25.6047L -1.43903e-06 25.6047L -1.43903e-06 21.1378L -1.43903e-06 21.1378ZM 9.35716 21.1378L 9.35716 9.56335L 9.26727 9.56335L 4.50028 21.1378L 9.35716 21.1378Z"/>
</defs>
</svg>
