<svg width="99" height="26" viewBox="0 0 99 26" fill="none" xmlns="http://www.w3.org/2000/svg">
<path d="M0 0H99V26H0V0Z" fill="black"/>
<path fill-rule="evenodd" clip-rule="evenodd" d="M96.5 2.5H2.5V23.5H96.5V2.5ZM0 0V26H99V0H0Z" fill="black"/>
<path d="M10.9277 15.8745H10.9669L12.4049 6.15674H15.3779V19.8426H13.3565V10.0285H13.3173L11.8799 19.8432H9.85916L8.30487 10.1655H8.26632V19.8432H6.40039V6.15674H9.37341L10.9277 15.8745Z" fill="white"/>
<path d="M23.8505 19.843H21.6935L21.324 17.3593H18.7006L18.3311 19.843H16.3682L18.5444 6.15723H21.6729L23.8505 19.843ZM18.973 15.502H21.033L20.0229 8.58085H19.9837L18.973 15.502Z" fill="white"/>
<path d="M24.8418 6.15674H28.2235C30.3612 6.15674 31.4098 7.34948 31.4098 9.53908V16.4602C31.4098 18.6498 30.3605 19.8426 28.2235 19.8426H24.8418V6.15674ZM26.9795 8.11232V17.887H28.1843C28.8647 17.887 29.2721 17.5359 29.2721 16.5572V9.44146C29.2721 8.46335 28.8641 8.11167 28.1843 8.11167H26.9795V8.11232Z" fill="white"/>
<path d="M37.5198 15.8745H37.559L38.9964 6.15674H41.9694V19.8426H39.948V10.0285H39.9088L38.4708 19.8432H36.4493L34.895 10.1655H34.8565V19.8432H32.9912V6.15674H35.9642L37.5198 15.8745Z" fill="white"/>
<path d="M50.442 19.843H48.2856L47.9162 17.3593H45.2927L44.9232 19.843H42.9609L45.1372 6.15723H48.2657L50.442 19.843ZM45.5651 15.502H47.6251L46.6144 8.58085H46.5752L45.5651 15.502Z" fill="white"/>
<path d="M53.3757 9.9302H53.3372V19.8426H51.4141V6.15674H54.0954L56.2517 14.3488H56.2909V6.15674H58.196V19.8426H55.9998L53.3757 9.9302Z" fill="white"/>
<path d="M62.6083 6C64.6875 6 65.7554 7.25157 65.7554 9.44117V9.87108H63.7346V9.30477C63.7346 8.3273 63.3459 7.95558 62.6655 7.95558C61.985 7.95558 61.5976 8.3273 61.5976 9.30477C61.5976 10.3016 62.0242 11.0444 63.4236 12.2766C65.2118 13.8611 65.7753 14.995 65.7753 16.5582C65.7753 18.7491 64.6875 20 62.5877 20C60.4892 20 59.4014 18.7484 59.4014 16.5582V15.7184H61.4221V16.6959C61.4221 17.6733 61.8501 18.0257 62.5305 18.0257C63.211 18.0257 63.6383 17.6733 63.6383 16.6959C63.6383 15.6984 63.211 14.9562 61.8115 13.7234C60.024 12.1402 59.4598 11.0056 59.4598 9.44182C59.4592 7.25157 60.5284 6 62.6083 6Z" fill="white"/>
<path d="M66.999 6.15674H69.1374V19.8426H66.999V6.15674Z" fill="white"/>
<path d="M70.5156 9.44117C70.5156 7.25092 71.6619 6 73.7611 6C75.8596 6 77.0065 7.25157 77.0065 9.44117V16.5569C77.0065 18.7478 75.8596 19.9987 73.7611 19.9987C71.6619 19.9987 70.5156 18.7471 70.5156 16.5569V9.44117ZM72.6527 16.6952C72.6527 17.6727 73.0806 18.0438 73.7611 18.0438C74.4415 18.0438 74.8688 17.6727 74.8688 16.6952V9.30477C74.8688 8.3273 74.4415 7.95558 73.7611 7.95558C73.0806 7.95558 72.6527 8.3273 72.6527 9.30477V16.6952Z" fill="white"/>
<path d="M80.3301 9.9302H80.2909V19.8426H78.3672V6.15674H81.0491L83.2055 14.3488H83.2447V6.15674H85.1492V19.8426H82.953L80.3301 9.9302Z" fill="white"/>
<path d="M86.3789 15.405L90.2656 6.15723H92.5974V15.405H93.6081V17.3593H92.5974V19.843H90.4597V17.3593H86.3789V15.405V15.405ZM90.459 15.405V10.3412H90.4198L88.3412 15.405H90.459Z" fill="white"/>
</svg>
