<svg width="698" height="192" viewBox="0 0 698 192" fill="none" xmlns="http://www.w3.org/2000/svg">
<rect width="698" height="192" fill="#0000FF"/>
<path d="M85.0444 115.709H85.3132L95.1737 49.0732H115.56V142.919H101.699V75.6222H101.43L91.5741 142.923H77.7173L67.0593 76.562H66.7949V142.923H54V49.0732H74.3864L85.0444 115.709Z" fill="white"/>
<path d="M173.661 142.924H158.87L156.337 125.892H138.347L135.814 142.924H122.354L137.277 49.0781H158.729L173.661 142.924ZM140.215 113.156H154.341L147.415 65.6973H147.146L140.215 113.156Z" fill="white"/>
<path d="M180.457 49.0732H203.646C218.304 49.0732 225.495 57.252 225.495 72.2664V119.726C225.495 134.74 218.3 142.919 203.646 142.919H180.457V49.0732ZM195.116 62.4829V129.509H203.377C208.043 129.509 210.836 127.102 210.836 120.391V71.5971C210.836 64.89 208.038 62.4785 203.377 62.4785H195.116V62.4829Z" fill="white"/>
<path d="M267.393 115.71H267.662L277.518 49.0742H297.904V142.92H284.043V75.6232H283.774L273.914 142.924H260.053L249.395 76.5629H249.13V142.924H236.34V49.0742H256.726L267.393 115.71Z" fill="white"/>
<path d="M356.004 142.924H341.217L338.684 125.892H320.694L318.161 142.924H304.705L319.628 49.0781H341.081L356.004 142.924ZM322.562 113.156H336.688L329.757 65.6973H329.489L322.562 113.156Z" fill="white"/>
<path d="M376.121 74.9494H375.857V142.92H362.67V49.0742H381.056L395.842 105.249H396.111V49.0742H409.175V142.92H394.115L376.121 74.9494Z" fill="white"/>
<path d="M439.426 48C453.683 48 461.006 56.5822 461.006 71.5966V74.5445H447.149V70.6612C447.149 63.9586 444.484 61.4097 439.818 61.4097C435.152 61.4097 432.495 63.9586 432.495 70.6612C432.495 77.4969 435.421 82.5903 445.017 91.0395C457.279 101.905 461.143 109.68 461.143 120.399C461.143 135.422 453.683 144 439.285 144C424.895 144 417.436 135.418 417.436 120.399V114.641H431.292V121.343C431.292 128.046 434.227 130.462 438.893 130.462C443.559 130.462 446.488 128.046 446.488 121.343C446.488 114.503 443.559 109.414 433.962 100.96C421.705 90.1042 417.837 82.3243 417.837 71.601C417.832 56.5822 425.164 48 439.426 48Z" fill="white"/>
<path d="M469.535 49.0742H484.198V142.92H469.535V49.0742Z" fill="white"/>
<path d="M493.65 71.5966C493.65 56.5778 501.511 48 515.905 48C530.295 48 538.159 56.5822 538.159 71.5966V120.39C538.159 135.413 530.295 143.991 515.905 143.991C501.511 143.991 493.65 135.409 493.65 120.39V71.5966ZM508.305 121.339C508.305 128.041 511.239 130.586 515.905 130.586C520.571 130.586 523.501 128.041 523.501 121.339V70.6612C523.501 63.9586 520.571 61.4097 515.905 61.4097C511.239 61.4097 508.305 63.9586 508.305 70.6612V121.339Z" fill="white"/>
<path d="M560.948 74.9494H560.68V142.92H547.488V49.0742H565.879L580.665 105.249H580.934V49.0742H593.993V142.92H578.934L560.948 74.9494Z" fill="white"/>
<path d="M602.428 112.492L629.079 49.0781H645.069V112.492H651.999V125.892H645.069V142.924H630.41V125.892H602.428V112.492V112.492ZM630.406 112.492V77.7682H630.137L615.884 112.492H630.406Z" fill="white"/>
</svg>
