<svg width="118" height="118" viewBox="0 0 118 118" fill="none" xmlns="http://www.w3.org/2000/svg">
<mask id="mask0" mask-type="alpha" maskUnits="userSpaceOnUse" x="0" y="0" width="118" height="118">
<rect width="118" height="118" rx="28" fill="black"/>
</mask>
<g mask="url(#mask0)">
<rect width="118" height="118" fill="black"/>
<path fill-rule="evenodd" clip-rule="evenodd" d="M81.6244 0H0V59.9219H81.6244V47.9375H86.4258V11.9844H81.6244V0Z" transform="translate(15.7871 29.0391)" fill="#FFC700"/>
<path d="M9.14311 0L9.16219 8.05605L3.07315 0H0V13.3822H3.26403V5.38343L9.33398 13.3822H12.388V0H9.14311Z" transform="translate(24.2296 51.8272)" fill="black"/>
<path d="M26.8592 0H23.3661L20.2739 5.74614L17.1053 0H13.6122L18.5369 9.20146V13.3822H22.03V9.10601L26.8592 0Z" transform="translate(24.2296 51.8272)" fill="black"/>
<rect width="70.8691" height="3.57227" transform="translate(15.7871 38.6035)" fill="black"/>
</g>
</svg>
