<svg width="118" height="118" viewBox="0 0 118 118" fill="none" xmlns="http://www.w3.org/2000/svg">
<mask id="mask0" mask-type="alpha" maskUnits="userSpaceOnUse" x="0" y="0" width="118" height="118">
<rect width="118" height="118" rx="28" fill="black"/>
</mask>
<g mask="url(#mask0)">
<rect width="118" height="118" fill="black"/>
<path fill-rule="evenodd" clip-rule="evenodd" d="M97.4115 29.0391H15.7871V88.9609H97.4115V76.9766H102.213V41.0234H97.4115V29.0391Z" fill="#FF6635"/>
<path d="M30.0756 51.4369H24.2236V64.7559H27.7006V61.0699H30.0756C33.4766 61.0699 35.4336 59.2459 35.4336 56.1109C35.4336 53.1469 33.4766 51.4369 30.0756 51.4369ZM29.9046 58.2959H27.7006V54.2109H29.9046C31.3106 54.2109 32.1276 54.9139 32.1276 56.2249C32.1276 57.5739 31.3106 58.2959 29.9046 58.2959ZM40.5197 56.1869V54.4769H37.1377V64.7559H40.5197V59.5119C40.6907 58.0869 41.9447 57.2509 43.8257 57.4409V54.3439C42.3817 54.3439 41.2227 55.0089 40.5197 56.1869ZM49.6594 54.3439C47.9684 54.3439 46.4864 54.7429 44.8714 55.4649L45.8024 57.7449C46.9044 57.2129 48.0254 56.9279 48.8804 56.9279C50.1724 56.9279 50.8374 57.4979 50.8374 58.4669V58.5809H48.1584C45.6124 58.6189 44.2254 59.7399 44.2254 61.6969C44.2254 63.5779 45.5364 64.9079 47.7404 64.9079C49.1274 64.9079 50.1724 64.4519 50.8374 63.5969V64.7559H54.1624V58.0679C54.1434 55.7119 52.4904 54.3439 49.6594 54.3439ZM48.7854 62.6089C47.9114 62.6089 47.3984 62.1529 47.3984 61.4499C47.3984 60.7279 47.8734 60.3859 48.8234 60.3859H50.8374V61.2789C50.6284 62.0579 49.7924 62.6089 48.7854 62.6089ZM63.3126 54.3439C61.8116 54.3439 60.6336 54.9709 59.9116 56.1489V50.6579H56.5296V64.7559H59.9116V59.6829C59.9116 58.3339 60.6716 57.3839 61.9256 57.3649C63.0086 57.3649 63.6736 58.0869 63.6736 59.2459V64.7559H67.0556V58.2769C67.0556 55.8639 65.5736 54.3439 63.3126 54.3439ZM73.9661 54.3439C72.2751 54.3439 70.7931 54.7429 69.1781 55.4649L70.1091 57.7449C71.2111 57.2129 72.3321 56.9279 73.1871 56.9279C74.4791 56.9279 75.1441 57.4979 75.1441 58.4669V58.5809H72.4651C69.9191 58.6189 68.5321 59.7399 68.5321 61.6969C68.5321 63.5779 69.8431 64.9079 72.0471 64.9079C73.4341 64.9079 74.4791 64.4519 75.1441 63.5969V64.7559H78.4691V58.0679C78.4501 55.7119 76.7971 54.3439 73.9661 54.3439ZM73.0921 62.6089C72.2181 62.6089 71.7051 62.1529 71.7051 61.4499C71.7051 60.7279 72.1801 60.3859 73.1301 60.3859H75.1441V61.2789C74.9351 62.0579 74.0991 62.6089 73.0921 62.6089Z" fill="black"/>
<rect x="15.7871" y="38.6035" width="70.8691" height="3.57227" fill="black"/>
</g>
</svg>
