<svg width="750" height="520" viewBox="0 0 750 520" fill="none" xmlns="http://www.w3.org/2000/svg">
<path fill-rule="evenodd" clip-rule="evenodd" d="M708.333 0H0V520H708.333V416H750V104H708.333V0Z" fill="#FF6635"/>
<path d="M124.416 197.634H73.288V314H103.666V281.796H124.416C154.13 281.796 171.228 265.86 171.228 238.47C171.228 212.574 154.13 197.634 124.416 197.634ZM122.922 257.56H103.666V221.87H122.922C135.206 221.87 142.344 228.012 142.344 239.466C142.344 251.252 135.206 257.56 122.922 257.56ZM215.664 239.134V224.194H186.116V314H215.664V268.184C217.158 255.734 228.114 248.43 244.548 250.09V223.032C231.932 223.032 221.806 228.842 215.664 239.134ZM295.517 223.032C280.743 223.032 267.795 226.518 253.685 232.826L261.819 252.746C271.447 248.098 281.241 245.608 288.711 245.608C299.999 245.608 305.809 250.588 305.809 259.054V260.05H282.403C260.159 260.382 248.041 270.176 248.041 287.274C248.041 303.708 259.495 315.328 278.751 315.328C290.869 315.328 299.999 311.344 305.809 303.874V314H334.859V255.568C334.693 234.984 320.251 223.032 295.517 223.032ZM287.881 295.242C280.245 295.242 275.763 291.258 275.763 285.116C275.763 278.808 279.913 275.82 288.213 275.82H305.809V283.622C303.983 290.428 296.679 295.242 287.881 295.242ZM414.802 223.032C401.688 223.032 391.396 228.51 385.088 238.802V190.828H355.54V314H385.088V269.678C385.088 257.892 391.728 249.592 402.684 249.426C412.146 249.426 417.956 255.734 417.956 265.86V314H447.504V257.394C447.504 236.312 434.556 223.032 414.802 223.032ZM507.88 223.032C493.106 223.032 480.158 226.518 466.048 232.826L474.182 252.746C483.81 248.098 493.604 245.608 501.074 245.608C512.362 245.608 518.172 250.588 518.172 259.054V260.05H494.766C472.522 260.382 460.404 270.176 460.404 287.274C460.404 303.708 471.858 315.328 491.114 315.328C503.232 315.328 512.362 311.344 518.172 303.874V314H547.222V255.568C547.056 234.984 532.614 223.032 507.88 223.032ZM500.244 295.242C492.608 295.242 488.126 291.258 488.126 285.116C488.126 278.808 492.276 275.82 500.576 275.82H518.172V283.622C516.346 290.428 509.042 295.242 500.244 295.242Z" fill="black"/>
<rect y="83" width="615" height="31" fill="black"/>
</svg>
