<svg width="118" height="118" viewBox="0 0 118 118" fill="none" xmlns="http://www.w3.org/2000/svg">
<mask id="mask0" mask-type="alpha" maskUnits="userSpaceOnUse" x="0" y="0" width="118" height="119">
<rect y="0.00050354" width="118" height="118" rx="26" fill="black"/>
</mask>
<g mask="url(#mask0)">
<rect width="118" height="118" fill="#FF4141"/>
<ellipse cx="28.6934" cy="34.5075" rx="14.4043" ry="14.4043" stroke="white" stroke-width="4" stroke-linecap="round"/>
<path d="M19.5244 16.7626L21.9417 21.2197M15.8916 18.6598L23.1572 14.8655" stroke="white" stroke-width="4" stroke-linecap="round" stroke-linejoin="round"/>
<path d="M37.8623 16.7624L35.445 21.2195M34.2295 14.8652L41.4951 18.6596" stroke="white" stroke-width="4" stroke-linecap="round" stroke-linejoin="round"/>
<path d="M28.6936 26.2869L28.6935 35.8898" stroke="white" stroke-width="4" stroke-linecap="round" stroke-linejoin="round"/>
<path d="M28.6938 37.8897C29.7984 37.8897 30.6938 36.9943 30.6938 35.8897C30.6938 34.7852 29.7984 33.8897 28.6938 33.8897L28.6938 37.8897ZM20.6914 33.8897C19.5868 33.8897 18.6914 34.7852 18.6914 35.8897C18.6914 36.9943 19.5868 37.8897 20.6914 37.8897L20.6914 33.8897ZM28.6938 33.8897L20.6914 33.8897L20.6914 37.8897L28.6938 37.8897L28.6938 33.8897Z" fill="white"/>
<path d="M78.9021 42.1306C84.3765 42.2725 88.9294 37.95 89.0712 32.4761C89.213 27.0022 84.8901 22.4498 79.4156 22.3079C73.9412 22.1661 69.3883 26.4886 69.2465 31.9625C69.1047 37.4364 73.4277 41.9888 78.9021 42.1306Z" fill="black"/>
<path d="M78.9021 42.1306C84.3765 42.2725 88.9294 37.95 89.0712 32.4761C89.213 27.0022 84.8901 22.4498 79.4156 22.3079C73.9412 22.1661 69.3883 26.4886 69.2465 31.9625C69.1047 37.4364 73.4277 41.9888 78.9021 42.1306Z" fill="white"/>
<path d="M97.3915 58.1254C97.6855 57.8732 97.9412 57.5662 98.1422 57.2091L105.613 43.9371C106.537 42.2952 105.956 40.2149 104.313 39.2907C102.671 38.3665 100.591 38.9484 99.6666 40.5903L93.9941 50.6674L83.1314 46.1496C82.9797 46.0865 82.8263 46.0336 82.672 45.9907C82.4855 45.8974 82.2856 45.8233 82.0741 45.7716L69.3997 42.6735C69.1585 42.6146 68.9166 42.5884 68.6789 42.5923C68.4905 42.5698 68.2981 42.5607 68.1028 42.566L53.8945 42.9511C51.8875 43.0055 50.2737 44.5586 50.096 46.5097C50.0733 46.639 50.0576 46.7709 50.0493 46.905L49.121 61.9276C49.0017 63.8574 50.4697 65.5186 52.3997 65.6378C54.3298 65.7571 55.991 64.2893 56.1103 62.3594L56.8298 50.7156L64.2133 50.5155L56.8656 74.6157L47.2771 84.8642L33.1647 78.865C30.6415 77.7923 27.7264 78.9681 26.6537 81.491C25.5809 84.014 26.7568 86.9289 29.28 88.0015L45.8417 95.0419C46.4476 95.2995 47.0761 95.4274 47.6962 95.4382C49.346 95.8174 51.1481 95.3524 52.4162 94.0518L62.7359 83.4671L63.1778 83.5955C63.2631 83.643 63.3502 83.6883 63.4392 83.7314L79.3712 91.4334L89.568 104.775C91.2328 106.953 94.3484 107.37 96.5269 105.705C98.7054 104.041 99.1218 100.925 97.457 98.747L86.5297 84.4494C85.9349 83.6711 85.1548 83.1177 84.2984 82.8038C84.1897 82.7408 84.0779 82.6814 83.963 82.6258L75.6 78.5829L82.6311 54.4339L93.2433 58.8475C94.6945 59.451 96.3014 59.1179 97.3915 58.1254Z" fill="black"/>
<path d="M97.3915 58.1254C97.6855 57.8732 97.9412 57.5662 98.1422 57.2091L105.613 43.9371C106.537 42.2952 105.956 40.2149 104.313 39.2907C102.671 38.3665 100.591 38.9484 99.6666 40.5903L93.9941 50.6674L83.1314 46.1496C82.9797 46.0865 82.8263 46.0336 82.672 45.9907C82.4855 45.8974 82.2856 45.8233 82.0741 45.7716L69.3997 42.6735C69.1585 42.6146 68.9166 42.5884 68.6789 42.5923C68.4905 42.5698 68.2981 42.5607 68.1028 42.566L53.8945 42.9511C51.8875 43.0055 50.2737 44.5586 50.096 46.5097C50.0733 46.639 50.0576 46.7709 50.0493 46.905L49.121 61.9276C49.0017 63.8574 50.4697 65.5186 52.3997 65.6378C54.3298 65.7571 55.991 64.2893 56.1103 62.3594L56.8298 50.7156L64.2133 50.5155L56.8656 74.6157L47.2771 84.8642L33.1647 78.865C30.6415 77.7923 27.7264 78.9681 26.6537 81.491C25.5809 84.014 26.7568 86.9289 29.28 88.0015L45.8417 95.0419C46.4476 95.2995 47.0761 95.4274 47.6962 95.4382C49.346 95.8174 51.1481 95.3524 52.4162 94.0518L62.7359 83.4671L63.1778 83.5955C63.2631 83.643 63.3502 83.6883 63.4392 83.7314L79.3712 91.4334L89.568 104.775C91.2328 106.953 94.3484 107.37 96.5269 105.705C98.7054 104.041 99.1218 100.925 97.457 98.747L86.5297 84.4494C85.9349 83.6711 85.1548 83.1177 84.2984 82.8038C84.1897 82.7408 84.0779 82.6814 83.963 82.6258L75.6 78.5829L82.6311 54.4339L93.2433 58.8475C94.6945 59.451 96.3014 59.1179 97.3915 58.1254Z" fill="white"/>
</g>
</svg>
