<svg width="118" height="118" viewBox="0 0 118 118" fill="none" xmlns="http://www.w3.org/2000/svg">
<mask id="mask0" mask-type="alpha" maskUnits="userSpaceOnUse" x="0" y="0" width="118" height="118">
<rect width="118" height="118" rx="28" fill="black"/>
</mask>
<g mask="url(#mask0)">
<rect width="118" height="118" fill="black"/>
<path fill-rule="evenodd" clip-rule="evenodd" d="M81.6244 0H0V59.9219H81.6244V47.9375H86.4258V11.9844H81.6244V0Z" transform="translate(15.7871 29.0391)" fill="#80F0FF"/>
<path fill-rule="evenodd" clip-rule="evenodd" d="M81.6244 0H0V59.9219H81.6244V47.9375H86.4258V11.9844H81.6244V0Z" transform="translate(15.7871 29.0391)" fill="#4DD4FF"/>
<path fill-rule="evenodd" clip-rule="evenodd" d="M81.6244 0H0V59.9219H81.6244V47.9375H86.4258V11.9844H81.6244V0Z" transform="translate(15.7871 29.0391)" fill="#60D9FF"/>
<path d="M7.619 11.681H1.292V25H7.866C11.001 25 12.996 23.575 12.996 21.295C12.996 19.585 11.951 18.274 10.26 17.932C11.666 17.552 12.559 16.431 12.559 15.044C12.559 12.992 10.64 11.681 7.619 11.681ZM7.429 16.982H4.769V14.398H7.429C8.398 14.379 8.987 14.854 8.987 15.652C8.987 16.488 8.398 16.982 7.429 16.982ZM7.429 22.302H4.769V19.509H7.429C8.645 19.49 9.405 20.022 9.405 20.858C9.405 21.77 8.645 22.302 7.429 22.302ZM21.5426 14.721V19.794C21.5426 21.143 20.8206 22.093 19.6236 22.112C18.6166 22.112 17.9706 21.409 17.9706 20.25V14.721H14.5886V21.219C14.5886 23.613 16.0326 25.152 18.2556 25.152C19.7186 25.133 20.8396 24.525 21.5426 23.328V25H24.9246V14.721H21.5426ZM34.3688 17.97L35.5088 15.766C34.2168 14.987 32.7158 14.569 31.2338 14.569C28.8208 14.569 27.0158 15.747 27.0158 17.894C27.0158 21.447 32.3168 20.744 32.3168 22.15C32.3168 22.568 31.8608 22.777 31.2338 22.777C30.0938 22.777 28.7638 22.321 27.5858 21.504L26.5218 23.689C27.7758 24.658 29.4288 25.152 31.1578 25.152C33.6658 25.152 35.5088 23.955 35.5088 21.846C35.5278 18.274 30.1318 18.92 30.1318 17.571C30.1318 17.134 30.5308 16.925 31.1008 16.925C31.9368 16.925 33.0958 17.305 34.3688 17.97ZM41.9612 14.588C40.2702 14.588 38.7882 14.987 37.1732 15.709L38.1042 17.989C39.2062 17.457 40.3272 17.172 41.1822 17.172C42.4742 17.172 43.1392 17.742 43.1392 18.711V18.825H40.4602C37.9142 18.863 36.5272 19.984 36.5272 21.941C36.5272 23.822 37.8382 25.152 40.0422 25.152C41.4292 25.152 42.4742 24.696 43.1392 23.841V25H46.4642V18.312C46.4452 15.956 44.7922 14.588 41.9612 14.588ZM41.0872 22.853C40.2132 22.853 39.7002 22.397 39.7002 21.694C39.7002 20.972 40.1752 20.63 41.1252 20.63H43.1392V21.523C42.9302 22.302 42.0942 22.853 41.0872 22.853ZM55.5193 14.588C54.0183 14.588 52.8403 15.215 52.1183 16.393V14.721H48.7363V25H52.1183V19.566C52.2513 18.407 52.9923 17.628 54.1323 17.609C55.1963 17.609 55.8803 18.331 55.8803 19.49V25H59.2433V18.521C59.2433 16.108 57.7613 14.588 55.5193 14.588Z" transform="translate(22.9316 39.7559)" fill="black"/>
<rect width="70.8691" height="3.57227" transform="translate(15.7871 38.6035)" fill="black"/>
</g>
</svg>
