<svg width="113" height="112" viewBox="0 0 113 112" fill="none" xmlns="http://www.w3.org/2000/svg">
<path d="M55.7991 110.68C86.6162 110.68 111.598 85.9031 111.598 55.3398C111.598 24.7765 86.6162 0 55.7991 0C24.9821 0 0 24.7765 0 55.3398C0 85.9031 24.9821 110.68 55.7991 110.68Z" transform="translate(0.714233 0.571411)" fill="#FF0000"/>
<path d="M0 0.2388V15.4352H3.45851V9.68226H10.3755V6.81666H3.45851V3.08269H10.9884L11.0103 0.2388H0Z" transform="translate(14.8707 48.0602)" fill="white"/>
<path d="M18.1484 0.2388V15.4352H30.0562V12.5913H21.607V9.22637H28.9837V6.38247H21.607V3.08269H29.8154V0.2388H18.1484Z" transform="translate(14.8707 48.0602)" fill="white"/>
<path d="M37.9001 0.2388V15.4352H41.3586V0.2388H37.9001Z" transform="translate(14.8707 48.0602)" fill="white"/>
<path d="M60.9901 4.99309L63.0039 2.53996C61.4935 0.976909 59.1733 0 56.9624 0C52.3219 0 48.7977 3.36491 48.7977 7.79357C48.7977 12.2656 52.2562 15.674 56.8311 15.674C59.0638 15.674 61.406 14.6102 63.0258 12.9386L60.9901 10.746C59.8956 11.8532 58.3852 12.5479 57.0062 12.5479C54.3795 12.5479 52.3438 10.4421 52.3438 7.75015C52.3438 5.05822 54.3795 2.99586 57.0062 2.99586C58.429 2.99586 59.9394 3.75567 60.9901 4.99309Z" transform="translate(14.8707 48.0602)" fill="white"/>
<path d="M81.5378 15.4352H85.2371L78.6922 0.2388H75.1242L68.4699 15.4352H72.0378L73.2418 12.4827H80.3339L81.5378 15.4352ZM74.38 9.72568L76.8097 3.8208L79.2175 9.72568H74.38Z" transform="translate(14.8707 48.0602)" fill="white"/>
</svg>
