<svg width="370" height="128" viewBox="0 0 370 128" fill="none" xmlns="http://www.w3.org/2000/svg">
<mask id="mask0" mask-type="alpha" maskUnits="userSpaceOnUse" x="0" y="0" width="370" height="128">
<rect width="370" height="128" fill="#C4C4C4"/>
</mask>
<g mask="url(#mask0)">
<path d="M64.784 20.272V110H41.36V39.472H24.08V20.272H64.784ZM122.934 19.504C135.649 19.504 145.419 23.4293 152.246 31.28C159.158 39.1307 162.614 50.3947 162.614 65.072C162.614 79.7493 159.158 91.056 152.246 98.992C145.419 106.843 135.649 110.768 122.934 110.768C110.049 110.768 100.15 106.843 93.238 98.992C86.4113 91.056 82.998 79.7493 82.998 65.072C82.998 50.3947 86.4113 39.1307 93.238 31.28C100.15 23.4293 110.049 19.504 122.934 19.504ZM122.934 36.912C117.302 36.912 113.249 39.1307 110.774 43.568C108.299 47.92 107.062 55.088 107.062 65.072C107.062 75.1413 108.299 82.3947 110.774 86.832C113.249 91.184 117.302 93.36 122.934 93.36C128.395 93.36 132.363 91.1413 134.838 86.704C137.398 82.2667 138.678 75.056 138.678 65.072C138.678 55.088 137.398 47.92 134.838 43.568C132.363 39.1307 128.395 36.912 122.934 36.912ZM212.934 19.504C225.649 19.504 235.419 23.4293 242.246 31.28C249.158 39.1307 252.614 50.3947 252.614 65.072C252.614 79.7493 249.158 91.056 242.246 98.992C235.419 106.843 225.649 110.768 212.934 110.768C200.049 110.768 190.15 106.843 183.238 98.992C176.411 91.056 172.998 79.7493 172.998 65.072C172.998 50.3947 176.411 39.1307 183.238 31.28C190.15 23.4293 200.049 19.504 212.934 19.504ZM212.934 36.912C207.302 36.912 203.249 39.1307 200.774 43.568C198.299 47.92 197.062 55.088 197.062 65.072C197.062 75.1413 198.299 82.3947 200.774 86.832C203.249 91.184 207.302 93.36 212.934 93.36C218.395 93.36 222.363 91.1413 224.838 86.704C227.398 82.2667 228.678 75.056 228.678 65.072C228.678 55.088 227.398 47.92 224.838 43.568C222.363 39.1307 218.395 36.912 212.934 36.912ZM324.694 110L301.142 75.184L289.878 87.728V110H266.454V20.272H289.878V59.184L323.542 20.272H350.678L317.398 57.264L352.726 110H324.694Z" fill="white"/>
</g>
</svg>
