<svg width="229" height="135" viewBox="0 0 229 135" fill="none" xmlns="http://www.w3.org/2000/svg">
<path d="M43.3519 78.7114C43.6177 78.3997 43.8723 78.1324 44.1159 77.9098C44.3595 77.6871 44.6363 77.4421 44.9463 77.1749C45.1234 77.1749 45.2342 77.1972 45.2785 77.2417C45.4113 77.3753 45.4777 77.5535 45.4777 77.7761C45.3449 78.0879 45.1456 78.3774 44.8799 78.6446C41.9126 81.8067 38.9232 84.8909 35.9172 87.8915C32.9056 90.8978 29.811 93.8205 26.6223 96.6708C25.1166 98.096 23.5997 99.4432 22.0773 100.707C20.5494 101.976 18.944 103.19 17.2666 104.342C16.248 105.01 15.2404 105.634 14.244 106.213C13.2475 106.792 12.1957 107.282 11.0885 107.683C10.4685 107.905 9.83736 108.094 9.1952 108.25C8.55303 108.406 7.92193 108.529 7.3019 108.618C5.35325 108.84 3.73676 108.406 2.45796 107.315C1.17362 106.224 0.398588 104.609 0.132863 102.477C0.088575 102.121 0.0553594 101.776 0.0332156 101.442C0.0110719 101.108 0 100.852 0 100.674C0.0442875 99.1593 0.17715 97.7564 0.398588 96.4704C0.620025 95.1788 0.907894 93.8873 1.26219 92.6013C1.92651 90.3299 2.67939 88.142 3.52086 86.0266C4.36232 83.9111 5.29236 81.8123 6.31097 79.7191C8.79107 74.6029 11.5203 69.7206 14.5097 65.0665C17.4991 60.418 20.8483 56.02 24.563 51.8836C25.8473 50.4139 27.1925 49.0055 28.6097 47.6471C30.0269 46.2887 31.5106 45.0528 33.0551 43.945C33.8523 43.366 34.6494 42.8427 35.4466 42.3751C36.2438 41.9074 37.1074 41.5623 38.0374 41.3396C38.3032 41.2505 38.5689 41.1726 38.8346 41.1058C39.1003 41.0334 39.3661 41 39.6318 41C40.6947 41 41.5251 41.3452 42.123 42.0355C42.7208 42.7258 42.9755 43.6722 42.8869 44.8747C42.7983 45.899 42.5991 46.8343 42.289 47.6805C42.0233 48.4822 41.7354 49.2727 41.4254 50.0521C41.1154 50.8315 40.7833 51.5997 40.429 52.3568C38.2589 56.7604 35.585 60.88 32.3963 64.7046C31.9092 65.3281 31.3777 65.9294 30.802 66.5084C30.2262 67.0873 29.6283 67.6663 29.0083 68.2453C28.7869 68.468 28.5322 68.6461 28.2444 68.7797C27.9565 68.9133 27.6797 69.047 27.414 69.1806C27.0597 69.3587 26.8382 69.2474 26.7497 68.8465C26.7497 68.5348 26.8161 68.2676 26.9489 68.0449C26.9932 67.9113 27.104 67.8445 27.2811 67.8445C28.034 67.4882 28.7094 67.0317 29.3073 66.475C29.9051 65.9183 30.4698 65.3281 31.0013 64.7046C34.9816 60.1675 38.1924 55.1181 40.6283 49.551C40.8497 49.1502 41.049 48.7271 41.2261 48.2817C41.4033 47.8364 41.5362 47.3687 41.6247 46.8788C41.7133 46.5225 41.7797 46.1328 41.824 45.7098C41.8683 45.2867 41.8905 44.8747 41.8905 44.4739C41.8019 43.3159 41.2261 42.6701 40.1632 42.5365C39.6318 42.4474 39.1668 42.4697 38.7682 42.6033C38.1924 42.826 37.6167 43.0376 37.041 43.238C36.4652 43.4384 35.9116 43.6945 35.3802 44.0062C34.2287 44.6297 33.1437 45.3423 32.1251 46.144C31.1064 46.9456 30.1321 47.7918 29.2021 48.6826C26.6334 51.0876 24.2696 53.654 22.0995 56.393C19.9294 59.132 17.8534 61.9656 15.8605 64.905C13.4689 68.468 11.2822 72.1144 9.28931 75.8499C7.29637 79.5854 5.5304 83.4824 3.98034 87.5297C3.36032 89.0439 2.80672 90.5693 2.31956 92.1002C1.8324 93.6368 1.4781 95.2234 1.25666 96.8712C1.1238 97.6284 1.04629 98.3966 1.02415 99.176C1.002 99.9554 0.990933 100.746 0.990933 101.548C0.990933 102.127 1.07951 102.672 1.25666 103.184C1.43381 103.696 1.65525 104.198 1.92097 104.687C2.8953 106.291 4.20178 107.115 5.83488 107.159C7.38494 107.293 8.97376 107.048 10.6124 106.424C12.3396 105.756 13.9727 104.932 15.5228 103.953C17.0728 102.973 18.5786 101.904 20.0346 100.746C21.186 99.8106 22.3264 98.8531 23.4502 97.8733C24.5796 96.8935 25.6978 95.8914 26.7995 94.8671V94.9339C32.5292 89.7287 38.0374 84.323 43.3519 78.7114Z" fill="#FC4B3E"/>
<path d="M50.5159 68.3685C50.7816 68.6357 50.9034 68.8807 50.8813 69.1034C50.8591 69.326 50.8259 69.5487 50.7816 69.7714C50.5602 70.7067 50.3388 71.5751 50.1173 72.3768C49.9402 72.9112 49.752 73.5904 49.5527 74.4144C49.3534 75.2383 49.1541 76.0845 48.9548 76.9529C48.7555 77.8214 48.5783 78.6676 48.4233 79.4915C48.2683 80.3155 48.1465 80.9946 48.058 81.5291C47.9251 82.4198 47.9251 83.3106 48.058 84.2013C48.1908 85.3147 48.8109 85.671 49.918 85.2702C50.1395 85.1811 50.3498 85.0697 50.5491 84.9361C50.7484 84.8025 50.9366 84.6912 51.1138 84.6021C52.6639 83.5332 54.1364 82.353 55.5259 81.067C56.921 79.7755 58.2552 78.4227 59.5395 76.9975L64.6492 71.0574C64.782 70.8793 64.926 70.7234 65.081 70.5898C65.236 70.4562 65.4242 70.4339 65.6456 70.523C65.8228 70.7902 65.856 71.0129 65.7453 71.191C65.6346 71.3692 65.4906 71.5696 65.3135 71.7923C65.0478 72.1486 64.8374 72.4158 64.6824 72.5939C64.5274 72.7721 64.3834 72.9391 64.2506 73.095C64.1177 73.2508 63.9738 73.4178 63.8188 73.596C63.6638 73.7741 63.4534 74.0191 63.1877 74.3309C62.3019 75.3552 61.4383 76.3461 60.5969 77.3037C59.7554 78.2612 58.8918 79.2076 58.006 80.1429C56.9874 81.3008 55.8913 82.3697 54.7232 83.3495C53.5496 84.3293 52.3206 85.2423 51.0363 86.0885C50.372 86.5339 49.752 86.7343 49.1762 86.6898C48.1133 86.6898 47.449 86.1776 47.1833 85.1533C47.0061 84.5297 46.9397 83.884 46.984 83.2159C47.0283 82.5479 47.0947 81.9021 47.1833 81.2786C47.2719 80.5214 47.4269 79.6196 47.6483 78.573C47.8697 77.5264 48.1133 76.4463 48.379 75.3329C48.6448 74.2195 48.9216 73.1395 49.2094 72.0985C49.4973 71.0518 49.7741 70.15 50.0398 69.3928L50.2391 68.7248L50.5159 68.3685ZM52.5753 63.4305C52.3538 63.9649 52.1103 64.4883 51.8445 65.0004C51.5788 65.5126 51.2688 66.0136 50.9145 66.5035C50.8702 66.5035 50.837 66.4924 50.8149 66.4701C50.7927 66.4479 50.7595 66.4367 50.7152 66.4367C50.6709 66.3477 50.6266 66.2363 50.5823 66.1027C50.5381 65.9691 50.5602 65.8578 50.6488 65.7687C50.7816 65.3679 50.9256 64.9782 51.0806 64.5996C51.2356 64.221 51.4238 63.8313 51.6452 63.4305C51.8667 63.0297 52.1767 63.0297 52.5753 63.4305Z" fill="#FC4B3E"/>
<path d="M74.8797 78.7102L76.8062 76.9064C77.2491 76.5501 77.6588 76.1604 78.0352 75.7373C78.4117 75.3142 78.777 74.9023 79.1313 74.5014L82.9788 70.5655C83.0674 70.4764 83.156 70.3874 83.2445 70.2983C83.3331 70.2092 83.466 70.1201 83.6431 70.0311C83.776 69.8975 83.9642 69.8975 84.2078 70.0311C84.4514 70.1647 84.5732 70.3428 84.5732 70.5655C84.5732 70.6991 84.4956 70.8327 84.3406 70.9663C84.1856 71.1 84.0638 71.2113 83.9753 71.3004C83.4881 71.7457 82.8459 72.4027 82.0488 73.2711C81.2516 74.1396 80.4766 74.9301 79.7237 75.6427C79.2365 76.1326 78.7604 76.6225 78.2954 77.1124C77.8304 77.6023 77.3543 78.0922 76.8671 78.5821L75.6049 79.651L73.0141 81.9892C72.2612 82.7017 71.4419 83.3364 70.5562 83.8931C69.6704 84.4498 68.7625 84.9731 67.8325 85.463C67.4339 85.6857 67.0132 85.8639 66.5703 85.9975C66.1274 86.1311 65.6845 86.2424 65.2417 86.3315C64.0459 86.4651 63.2487 85.8639 62.8501 84.5278C62.6287 83.637 62.5844 82.5681 62.7173 81.3211C62.8944 79.6733 63.1934 78.0421 63.6141 76.4165C64.0348 74.7909 64.5109 73.2043 65.0424 71.6455C65.751 69.5968 66.5149 67.576 67.3342 65.5718C68.1536 63.5677 69.0282 61.6359 69.9583 59.7654L71.2205 57.0264C71.1319 56.9818 71.0433 56.9262 70.9547 56.8594C70.8662 56.7926 70.7776 56.7592 70.689 56.7592C69.3604 56.7146 68.0318 56.7369 66.7087 56.826C65.3801 56.915 64.0957 57.1377 62.8612 57.494C62.0197 57.7167 61.2447 57.995 60.5361 58.3291C59.8275 58.6631 59.1632 59.0973 58.5432 59.6318C58.0117 59.4536 57.8789 59.1641 58.1446 58.7633C58.2332 58.5852 58.3549 58.3847 58.51 58.1621C58.665 57.9394 58.831 57.7835 59.0082 57.6944C59.9382 57.2045 60.8904 56.7926 61.8647 56.4585C62.8391 56.1245 63.8355 55.913 64.8541 55.8239C65.8728 55.6457 66.9135 55.5121 67.9764 55.4231C69.0393 55.334 70.1022 55.3117 71.1596 55.3562C71.2924 55.4008 71.4253 55.4119 71.5582 55.3896C71.691 55.3674 71.8682 55.334 72.0896 55.2894L74.0826 51.3535C74.1711 51.5317 74.2597 51.6764 74.3483 51.7877C74.4368 51.8991 74.4811 51.9993 74.4811 52.0884C74.3483 52.7119 74.149 53.2909 73.8833 53.8253C73.7947 54.048 73.7061 54.2707 73.6175 54.4933C73.529 54.716 73.4182 54.961 73.2854 55.2282C74.304 55.4509 75.2783 55.5845 76.2083 55.629C77.1384 55.6736 78.0684 55.6736 78.9985 55.629C83.5103 55.4954 87.8947 54.5824 92.1408 52.89C92.3622 52.7564 92.5947 52.6673 92.8383 52.6228C93.0819 52.5783 93.3144 52.5115 93.5358 52.4224C93.8016 52.6451 93.9123 52.8455 93.868 53.0236C93.8237 53.2018 93.713 53.3354 93.5358 53.4245C93.093 53.7362 92.6501 53.9589 92.2072 54.0925C89.86 55.0278 87.4851 55.7515 85.0714 56.2637C82.6577 56.7759 80.1278 57.0097 77.4705 56.9651C76.6734 56.9206 75.8762 56.9095 75.079 56.9317C74.2818 56.954 73.4182 56.9651 72.4882 56.9651C72.3553 57.1878 72.2114 57.4328 72.0564 57.7C71.9014 57.9672 71.7353 58.279 71.5582 58.6353C70.4953 60.8176 69.4877 62.9831 68.5355 65.1432C67.5834 67.3032 66.7087 69.5133 65.9115 71.7847C65.0258 74.546 64.2729 77.3908 63.6528 80.3302C63.52 81.1318 63.4978 82.0894 63.5864 83.2028C63.675 84.0044 63.9186 84.5278 64.3172 84.7727C64.7157 85.0177 65.3136 85.0288 66.1108 84.8061C66.3322 84.717 66.5647 84.628 66.8083 84.5389C67.0519 84.4498 67.2844 84.3607 67.5059 84.2717C68.3916 83.8263 69.2774 83.3364 70.1631 82.802C71.0489 82.2675 71.8682 81.644 72.6211 80.9314L74.9462 78.8605L74.8797 78.7102Z" fill="#FC4B3E"/>
<path d="M90.4092 78.6436L89.6785 79.3785C89.1027 79.9129 88.527 80.4585 87.9513 81.0152C87.3755 81.5719 86.7776 82.1175 86.1576 82.6519C85.8919 82.8746 85.604 83.0639 85.294 83.2198C84.984 83.3756 84.674 83.4981 84.364 83.5872C83.7882 83.8099 83.2789 83.8099 82.8361 83.5872C82.3932 83.3645 82.1275 82.9637 82.0389 82.3847C81.906 81.8502 81.8285 81.3269 81.8064 80.8148C81.7842 80.3026 81.7953 79.7793 81.8396 79.2449C81.9282 78.7104 82.061 78.0646 82.2382 77.3075C82.4153 76.5504 82.6035 75.771 82.8028 74.9693C83.0021 74.1677 83.1904 73.3883 83.3675 72.6312C83.5447 71.874 83.6997 71.2283 83.8325 70.6938C83.9211 70.293 83.9986 69.9144 84.065 69.5581C84.1315 69.2018 84.209 68.8456 84.2975 68.4893C84.6518 68.4893 84.9397 68.5672 85.1612 68.7231C85.3826 68.879 85.4712 69.0682 85.4269 69.2909C85.3383 69.5581 85.2719 69.8476 85.2276 70.1594C85.1833 70.4711 85.1169 70.7606 85.0283 71.0278C84.9397 71.5623 84.7958 72.1969 84.5965 72.9318C84.3972 73.6666 84.1868 74.4349 83.9654 75.2366C83.744 76.0382 83.5336 76.8065 83.3343 77.5413C83.135 78.2762 82.9911 78.9108 82.9025 79.4453C82.8582 79.8016 82.825 80.169 82.8028 80.5476C82.7807 80.9261 82.8139 81.2713 82.9025 81.583C82.9468 81.9839 83.0796 82.2399 83.3011 82.3513C83.5225 82.4626 83.8104 82.4738 84.1647 82.3847L85.759 81.583C86.7776 80.8259 87.6966 80.002 88.5159 79.1112C89.3353 78.2205 90.1214 77.263 90.8742 76.2386C91.0071 76.105 91.1067 75.938 91.1732 75.7376C91.2396 75.5372 91.295 75.3256 91.3393 75.1029C91.4721 74.613 91.5828 74.1009 91.6714 73.5664C91.76 73.032 91.8486 72.4976 91.9371 71.9631C91.9814 71.874 92.0036 71.7738 92.0036 71.6625C92.0036 71.5512 92.0479 71.4287 92.1364 71.2951C92.2693 70.8942 92.3911 70.627 92.5018 70.4934C92.6125 70.3598 92.8229 70.3375 93.1329 70.4266C93.9301 70.5157 94.3287 70.9388 94.3287 71.6959C94.2401 72.2303 94.1072 72.7648 93.9301 73.2992C93.7529 73.6555 93.5758 74.0007 93.3986 74.3347C93.2215 74.6687 93 75.0139 92.7343 75.3702C92.2472 76.0382 91.8707 76.929 91.605 78.0424C91.4721 78.755 91.3282 79.4675 91.1732 80.1801C91.0182 80.8927 90.8521 81.6276 90.6749 82.3847C90.9407 82.2065 91.1621 82.0952 91.3393 82.0507C93.1108 80.581 94.9653 78.9554 96.914 77.1795C98.8626 75.398 100.629 73.7334 102.223 72.1747C102.577 71.9074 102.821 71.6959 102.954 71.54C103.087 71.3841 103.33 71.1503 103.684 70.8386C103.95 70.794 104.094 70.9276 104.116 71.2394C104.138 71.5512 104.083 71.7738 103.95 71.9074C103.729 72.2637 103.485 72.5978 103.219 72.9095C102.954 73.2213 102.666 73.533 102.356 73.8448C100.629 75.4036 98.7353 77.0793 96.6814 78.883C94.6221 80.6867 92.69 82.3179 90.8742 83.7876C90.4757 84.1439 90.1656 84.7006 89.9442 85.4577C89.457 87.5955 88.9145 89.7054 88.3166 91.7986C87.7188 93.8918 87.0212 95.9795 86.2241 98.0727C85.7369 99.4088 85.1833 100.717 84.5633 102.009C83.9432 103.3 83.2346 104.57 82.4375 105.811C81.8174 106.746 81.131 107.626 80.3781 108.45C79.6252 109.274 78.7616 110.02 77.7873 110.688C77.123 111.133 76.4587 111.501 75.7943 111.79C75.13 112.08 74.4214 112.202 73.6685 112.157C71.897 112.024 70.9006 111.089 70.6791 109.352C70.6348 108.728 70.6681 108.138 70.7788 107.581C70.8895 107.025 71.0334 106.457 71.2106 105.878C71.5206 104.853 71.9192 103.907 72.4063 103.039C72.8935 102.17 73.425 101.335 74.0007 100.533C76.4365 96.7979 79.1989 93.4353 82.2991 90.457C83.3177 89.3435 84.3806 88.2747 85.4878 87.2503C86.595 86.226 87.7022 85.2016 88.8093 84.1773C89.0751 83.9546 89.2854 83.7208 89.4404 83.4758C89.5954 83.2309 89.7172 82.9525 89.8058 82.6408C89.9387 81.9727 90.0605 81.3158 90.1712 80.67C90.2819 80.0243 90.448 79.3673 90.6694 78.6993C90.5808 78.6993 90.5255 78.6882 90.5033 78.6659C90.4867 78.6547 90.4535 78.6436 90.4092 78.6436ZM88.9477 85.6526C88.8149 85.7416 88.7042 85.8084 88.6156 85.853C88.527 85.8975 88.4606 85.9643 88.4163 86.0534C86.1576 88.013 84.0097 90.045 81.978 92.1605C79.9408 94.276 78.0419 96.5306 76.2704 98.9356C75.6061 99.8264 74.964 100.717 74.3439 101.608C73.7239 102.499 73.1703 103.456 72.6831 104.48C72.4617 105.015 72.2513 105.572 72.052 106.151C71.8528 106.73 71.731 107.331 71.6867 107.954C71.5538 109.068 71.7752 109.881 72.351 110.393C72.9267 110.905 73.746 111.027 74.8089 110.76C75.7833 110.537 76.7797 110.048 77.7984 109.29C79.437 108.132 80.7878 106.663 81.8451 104.887C82.3323 104.085 82.8084 103.295 83.2734 102.515C83.7384 101.736 84.1481 100.901 84.5024 100.01C85.521 97.7832 86.3625 95.5174 87.0268 93.2015C87.6911 90.8856 88.3332 88.553 88.9533 86.1926V85.6526H88.9477ZM93.1329 71.7683C93.0886 71.8573 93.0333 71.9464 92.9668 72.0355C92.9004 72.1246 92.845 72.2136 92.8007 72.3027C92.7565 72.4363 92.7343 72.6145 92.7343 72.8371C92.6457 72.9708 92.6236 73.0932 92.6679 73.2046C92.7122 73.3159 92.7343 73.4607 92.7343 73.6388C92.9115 73.3271 93.0554 73.0376 93.1661 72.7703C93.2768 72.5031 93.2658 72.1691 93.1329 71.7683Z" fill="#FC4B3E"/>
<path d="M126.984 63.5636C127.648 62.0493 128.412 60.5908 129.276 59.1934C130.139 57.7905 131.014 56.3821 131.9 54.9569C132.52 53.8435 133.184 52.7412 133.893 51.65C134.601 50.5589 135.332 49.4789 136.085 48.41C136.794 47.3411 137.569 46.339 138.41 45.4038C139.252 44.4685 140.137 43.6 141.067 42.7984C141.377 42.5312 141.687 42.3085 141.997 42.1303C142.307 41.9522 142.64 41.9967 142.994 42.2639C143.392 42.4866 143.614 42.765 143.658 43.099C143.702 43.433 143.68 43.7782 143.592 44.1345C143.37 44.8916 143.149 45.6265 142.927 46.339C142.706 47.0516 142.418 47.7865 142.064 48.5436C141.311 50.3251 140.414 52.0119 139.373 53.6152C138.333 55.2185 137.237 56.7773 136.085 58.286C132.808 62.5114 129.248 66.4974 125.401 70.2329C125.002 70.6338 124.714 71.0346 124.537 71.4354C124.36 71.7917 124.205 72.1703 124.072 72.5711C123.939 72.972 123.784 73.3728 123.607 73.7736C122.854 76.0895 122.112 78.4221 121.382 80.7826C120.651 83.143 120.175 85.587 119.953 88.1255C119.909 88.5264 119.909 88.9495 119.953 89.3948C119.953 90.1074 120.308 90.3301 121.016 90.0629C121.238 89.9738 121.426 89.8736 121.581 89.7623C121.736 89.6509 121.902 89.5285 122.079 89.3948C123.142 88.5932 124.282 87.6356 125.495 86.5222C126.713 85.4088 127.925 84.2397 129.143 83.0205C130.361 81.7958 131.535 80.5822 132.658 79.3852C133.788 78.1827 134.817 77.0916 135.747 76.1174C137.475 74.2468 139.135 72.3818 140.724 70.5113C140.768 70.4668 140.802 70.4222 140.824 70.3777C140.846 70.3332 140.901 70.2886 140.99 70.2441C141.211 70.1105 141.366 70.0882 141.455 70.1773C141.499 70.2664 141.543 70.3554 141.588 70.4445C141.632 70.5336 141.654 70.6226 141.654 70.7117C141.566 70.8899 141.477 71.0569 141.388 71.2128C141.3 71.3686 141.189 71.5134 141.056 71.647C140.525 72.315 139.971 72.9608 139.396 73.5843C138.82 74.2078 138.266 74.8536 137.735 75.5217C137.115 76.1897 136.384 77.0025 135.543 77.9601C134.701 78.9176 133.837 79.8863 132.952 80.8661C132.066 81.8459 131.18 82.8034 130.294 83.7387C129.409 84.674 128.612 85.4534 127.903 86.0769C127.017 86.9231 126.076 87.7359 125.08 88.5152C124.083 89.2946 123.076 90.0629 122.057 90.82C121.924 90.9536 121.681 91.1095 121.326 91.2877C120.706 91.5549 120.153 91.5437 119.665 91.2542C119.178 90.9648 118.957 90.5083 119.001 89.8847C119.001 89.1276 119.045 88.3705 119.134 87.6134C119.223 86.8563 119.333 86.0991 119.466 85.342C119.776 83.2933 120.252 81.3059 120.894 79.3685C121.537 77.4312 122.168 75.466 122.788 73.4619C123.363 71.7249 124.05 70.0381 124.847 68.3902C125.655 66.7201 126.364 65.1224 126.984 63.5636ZM126.32 67.5663C126.364 67.6109 126.408 67.6331 126.453 67.6331C126.541 67.5441 126.619 67.4661 126.685 67.3993C126.751 67.3325 126.829 67.2546 126.918 67.1655C129.348 64.716 131.64 62.1941 133.788 59.5887C135.936 56.9833 137.912 54.1942 139.728 51.2102C140.303 50.2304 140.824 49.2172 141.289 48.1706C141.754 47.124 142.164 46.044 142.518 44.9306C142.606 44.7079 142.662 44.4629 142.684 44.1957C142.706 43.9285 142.629 43.6167 142.451 43.2604C141.964 43.5277 141.566 43.7949 141.256 44.0621C139.44 45.5318 137.89 47.2687 136.611 49.2673C135.858 50.3362 135.138 51.4162 134.452 52.5074C133.765 53.5985 133.068 54.7008 132.359 55.8142C131.252 57.5957 130.211 59.3493 129.243 61.0862C128.268 62.8232 127.405 64.6492 126.652 66.5587L126.32 67.5663Z" fill="#FC4B3E"/>
<path d="M141.714 68.3685C141.98 68.6357 142.102 68.8807 142.08 69.1034C142.057 69.326 142.024 69.5487 141.98 69.7714C141.758 70.7067 141.537 71.5751 141.316 72.3768C141.138 72.9112 140.95 73.5904 140.751 74.4144C140.552 75.2383 140.352 76.0845 140.153 76.9529C139.954 77.8214 139.777 78.6676 139.622 79.4915C139.467 80.3155 139.345 80.9946 139.256 81.5291C139.123 82.4198 139.123 83.3106 139.256 84.2013C139.389 85.3147 140.009 85.671 141.116 85.2702C141.338 85.1811 141.548 85.0697 141.747 84.9361C141.947 84.8025 142.135 84.6912 142.312 84.6021C143.862 83.5332 145.335 82.353 146.724 81.067C148.119 79.7755 149.453 78.4227 150.738 76.9975L155.847 71.0574C155.98 70.8793 156.124 70.7234 156.279 70.5898C156.434 70.4562 156.622 70.4339 156.844 70.523C157.021 70.7902 157.054 71.0129 156.944 71.191C156.833 71.3692 156.689 71.5696 156.512 71.7923C156.246 72.1486 156.036 72.4158 155.881 72.5939C155.726 72.7721 155.582 72.9391 155.449 73.095C155.316 73.2508 155.172 73.4178 155.017 73.596C154.862 73.7741 154.652 74.0191 154.386 74.3309C153.5 75.3552 152.637 76.3461 151.795 77.3037C150.954 78.2612 150.09 79.2076 149.204 80.1429C148.186 81.3008 147.09 82.3697 145.921 83.3495C144.748 84.3293 143.519 85.2423 142.235 86.0885C141.57 86.5339 140.95 86.7343 140.374 86.6898C139.312 86.6898 138.647 86.1776 138.382 85.1533C138.204 84.5297 138.138 83.884 138.182 83.2159C138.227 82.5479 138.293 81.9021 138.382 81.2786C138.47 80.5214 138.625 79.6196 138.847 78.573C139.068 77.5264 139.312 76.4463 139.577 75.3329C139.843 74.2195 140.12 73.1395 140.408 72.0985C140.696 71.0518 140.972 70.15 141.238 69.3928L141.437 68.7248L141.714 68.3685ZM143.774 63.4305C143.552 63.9649 143.309 64.4883 143.043 65.0004C142.777 65.5126 142.467 66.0136 142.113 66.5035C142.068 66.5035 142.035 66.4924 142.013 66.4701C141.991 66.4479 141.958 66.4367 141.913 66.4367C141.869 66.3477 141.825 66.2363 141.781 66.1027C141.736 65.9691 141.758 65.8578 141.847 65.7687C141.98 65.3679 142.124 64.9782 142.279 64.5996C142.434 64.221 142.622 63.8313 142.843 63.4305C143.065 63.0297 143.375 63.0297 143.774 63.4305Z" fill="#FC4B3E"/>
<path d="M161.76 71.3733C161.45 71.7296 161.107 72.175 160.731 72.7094C160.354 73.2439 159.978 73.8006 159.601 74.3796C159.225 74.9585 158.837 75.5152 158.439 76.0497C158.04 76.5841 157.686 77.0518 157.376 77.4526C156.756 78.2097 156.125 78.9223 155.483 79.5903C154.84 80.2584 154.121 80.8819 153.324 81.4609C153.147 81.5945 152.991 81.717 152.859 81.8283C152.726 81.9397 152.549 82.0399 152.327 82.1289C151.929 82.3516 151.608 82.3962 151.364 82.2625C151.12 82.1289 150.932 81.9063 150.799 81.5945C150.666 81.2827 150.589 80.9376 150.567 80.559C150.545 80.1805 150.556 79.8576 150.6 79.5903C150.644 78.8778 150.821 78.1652 151.131 77.4526C151.441 76.74 151.818 76.0497 152.261 75.3816C152.704 74.7136 153.158 74.0678 153.623 73.4443C154.088 72.8208 154.497 72.2641 154.852 71.7742C155.162 71.4179 155.505 71.0838 155.881 70.7721C156.258 70.4603 156.623 70.1486 156.977 69.8368C157.642 69.2578 158.483 68.8682 159.502 68.6677C160.52 68.4673 161.473 68.3448 162.358 68.3003C162.713 68.3003 163 68.1222 163.222 67.7659C163.31 67.5432 163.41 67.3316 163.521 67.1312C163.632 66.9308 163.731 66.7415 163.82 66.5634C163.953 66.2962 164.13 66.0512 164.351 65.8285C164.528 65.7395 164.728 65.7395 164.949 65.8285C164.993 65.9176 165.049 66.0067 165.115 66.0957C165.182 66.1848 165.171 66.2739 165.082 66.363C165.082 66.6747 164.993 66.9865 164.816 67.2982C164.728 67.5209 164.639 67.6991 164.551 67.8327C164.462 67.9663 164.351 68.1444 164.218 68.3671C164.44 68.5007 164.595 68.6455 164.683 68.8013C164.772 68.9572 164.706 69.1242 164.484 69.3024C164.351 69.436 164.185 69.5362 163.986 69.603C163.787 69.6698 163.532 69.77 163.222 69.9036L161.03 77.8479C163.637 76.2 166.283 74.669 168.963 73.2439C171.637 71.8187 174.438 70.7498 177.361 70.0372C177.449 69.9482 177.538 69.9259 177.626 69.9704C177.715 70.015 177.804 70.0372 177.892 70.0372C177.981 70.3935 177.97 70.6496 177.859 70.8055C177.748 70.9614 177.582 71.1061 177.361 71.2397C177.228 71.3288 177.095 71.3845 176.962 71.4067C176.829 71.429 176.719 71.4624 176.63 71.5069C174.46 72.0859 172.373 72.921 170.358 74.0121C168.343 75.1033 166.388 76.2278 164.484 77.3802C163.908 77.7365 163.366 78.0817 162.857 78.4157C162.347 78.7497 161.805 79.1171 161.229 79.518C160.875 79.6961 160.631 80.0524 160.498 80.5869C159.745 83.2591 159.004 85.9146 158.273 88.5645C157.542 91.2088 156.8 93.8699 156.047 96.5421C155.516 98.2345 154.874 99.8657 154.121 101.447C153.368 103.028 152.482 104.525 151.464 105.95C150.356 107.598 149.05 108.756 147.55 109.419C146.885 109.775 146.199 109.942 145.49 109.92C144.782 109.898 144.128 109.742 143.531 109.452C142.933 109.163 142.412 108.74 141.969 108.183C141.527 107.626 141.239 106.969 141.106 106.212C140.619 104.074 140.796 101.942 141.637 99.8044C142.213 98.2456 142.899 96.7648 143.697 95.3675C144.494 93.9646 145.402 92.6173 146.42 91.3313C148.28 89.0154 150.284 86.9055 152.427 84.9904C154.575 83.0753 156.839 81.2549 159.23 79.518C159.762 79.1617 160.094 78.6718 160.227 78.0483C160.316 77.6029 160.437 77.0907 160.592 76.5118C160.747 75.9328 160.913 75.3427 161.091 74.7414C161.268 74.1402 161.423 73.5501 161.556 72.9711C161.688 72.3921 161.799 71.9022 161.888 71.5014C161.843 71.5014 161.821 71.4791 161.821 71.4346C161.827 71.3956 161.805 71.3733 161.76 71.3733ZM159.502 80.9821C159.413 80.9821 159.369 80.971 159.369 80.9487C159.369 80.9264 159.347 80.9153 159.302 80.9153L157.907 81.8506C155.914 83.4539 153.982 85.0851 152.1 86.7552C150.218 88.4253 148.48 90.2791 146.891 92.3278C145.917 93.5749 145.053 94.8553 144.3 96.1635C143.547 97.4774 142.905 98.8413 142.374 100.266C142.019 101.068 141.82 101.892 141.776 102.738C141.731 103.584 141.776 104.453 141.909 105.344C142.041 106.012 142.285 106.58 142.639 107.047C142.994 107.515 143.414 107.882 143.901 108.149C144.389 108.417 144.931 108.561 145.529 108.584C146.127 108.606 146.714 108.483 147.289 108.216C148.087 107.86 148.773 107.415 149.349 106.88C149.925 106.346 150.456 105.744 150.943 105.076C152.936 102.271 154.375 99.3145 155.256 96.1969L159.037 82.8471C159.125 82.4908 159.203 82.1679 159.269 81.8784C159.341 81.5945 159.413 81.2939 159.502 80.9821ZM151.608 81.1157C151.829 81.0267 152.017 80.9487 152.172 80.8819C152.327 80.8151 152.471 80.7372 152.604 80.6481C153.047 80.2918 153.49 79.9355 153.933 79.5792C154.375 79.2229 154.796 78.8221 155.195 78.3767C155.682 77.8423 156.191 77.2299 156.723 76.5396C157.254 75.8493 157.786 75.1255 158.317 74.3684C158.849 73.6113 159.369 72.8764 159.878 72.1639C160.388 71.4513 160.886 70.8055 161.373 70.2265C161.461 70.1374 161.55 69.937 161.639 69.6253L161.506 69.4917C161.063 69.6698 160.476 69.8257 159.745 69.9593C159.015 70.0929 158.45 70.2933 158.051 70.5605C157.298 71.0504 156.512 71.7074 155.693 72.5313C154.874 73.3552 154.132 74.2571 153.468 75.2369C152.803 76.2167 152.294 77.2299 151.94 78.2765C151.585 79.3231 151.475 80.2695 151.608 81.1157Z" fill="#FC4B3E"/>
<path d="M191.831 74.9099L189.905 76.58C189.639 76.8027 189.196 77.1256 188.576 77.5487C187.956 77.9718 187.303 78.3726 186.616 78.7512C185.93 79.1297 185.266 79.3969 184.623 79.5528C183.981 79.7087 183.505 79.653 183.195 79.3858C182.797 79.0741 182.63 78.74 182.697 78.3837C182.763 78.0274 182.841 77.6712 182.929 77.3149L183.793 73.8466C183.882 73.4457 183.937 73.0338 183.959 72.6107C183.981 72.1876 183.859 71.7311 183.594 71.2412C183.417 71.2412 183.25 71.23 183.095 71.2078C182.94 71.1855 182.797 71.2189 182.664 71.308L180.87 72.31C179.32 73.468 177.936 74.7596 176.724 76.1792C175.506 77.6043 174.327 79.0518 173.175 80.5159C172.954 80.8722 172.754 81.2174 172.577 81.5514C172.4 81.8854 172.201 82.2306 171.979 82.5869C171.935 82.7205 171.858 82.8318 171.747 82.9209C171.636 83.01 171.514 83.1659 171.381 83.3885C171.293 83.1659 171.226 82.9877 171.182 82.8541C171.138 82.7205 171.138 82.6091 171.182 82.5201C171.226 82.2529 171.293 81.9856 171.381 81.7184C171.47 81.4512 171.559 81.2062 171.647 80.9836C172.799 77.9105 173.939 74.8653 175.063 71.8368C176.192 68.8084 177.333 65.7854 178.479 62.7569C179.364 60.3965 180.361 58.0862 181.468 55.8148C182.575 53.5434 183.793 51.3222 185.116 49.1399C185.515 48.5163 185.958 47.8928 186.445 47.2693C186.932 46.6458 187.419 46.0223 187.906 45.3988C188.128 45.1316 188.349 44.8866 188.571 44.6639C188.792 44.4412 189.08 44.2854 189.434 44.1963C189.788 44.2408 190.043 44.3744 190.198 44.5971C190.353 44.8198 190.431 45.087 190.431 45.3988C190.475 46.2004 190.42 46.9798 190.265 47.737C190.11 48.4941 189.921 49.2512 189.7 50.0083C188.504 54.0111 186.733 57.7744 184.391 61.2872C183.107 63.2023 181.789 65.1174 180.444 67.0269C179.093 68.942 177.775 70.8292 176.497 72.6997L176.032 73.4346C175.412 74.0581 175.002 74.5814 174.803 75.0045C174.603 75.4276 174.415 76.1736 174.238 77.2425C174.592 77.0198 174.88 76.7637 175.102 76.4742C175.323 76.1847 175.544 75.8841 175.766 75.5724C176.43 74.6816 177.183 73.8911 178.025 73.2008C178.866 72.5105 179.73 71.809 180.615 71.0964C180.97 70.8737 181.335 70.6511 181.712 70.4284C182.088 70.2057 182.475 70.0498 182.874 69.9607C183.45 69.7826 183.915 69.8271 184.269 70.0943C184.623 70.3616 184.801 70.8069 184.801 71.4304C184.801 71.9649 184.767 72.4993 184.701 73.0338C184.634 73.5682 184.557 74.1026 184.468 74.6371C184.38 75.1715 184.258 75.7282 184.103 76.3072C183.948 76.8862 183.848 77.532 183.804 78.2446C183.804 78.5118 184.048 78.5563 184.535 78.3782C185.022 78.2 185.598 77.9105 186.262 77.5097C186.926 77.1089 187.613 76.6635 188.321 76.1736C189.03 75.6837 189.628 75.2383 190.115 74.8375C190.336 74.7039 190.525 74.5592 190.68 74.4033C190.835 74.2474 191.023 74.0804 191.244 73.9022L195.424 70.4339C195.645 70.1222 195.878 70.0442 196.122 70.2001C196.365 70.356 196.354 70.6344 196.088 71.0352L195.158 72.0373L191.831 74.9099ZM176.762 70.2391V70.0387L176.63 70.1723C176.674 70.2168 176.718 70.2391 176.762 70.2391ZM177.626 69.5042L180.217 65.9691C181.28 64.3658 182.343 62.7625 183.406 61.1648C184.468 59.5614 185.443 57.8913 186.328 56.1599C186.86 55.0465 187.347 53.9442 187.79 52.8531C188.233 51.762 188.609 50.6374 188.919 49.4794C189.096 48.8559 189.24 48.2547 189.351 47.6757C189.462 47.0967 189.473 46.4955 189.384 45.872C188.897 45.9611 188.565 46.1392 188.388 46.4064C187.901 47.0299 187.425 47.6312 186.96 48.2102C186.495 48.7891 186.063 49.4349 185.664 50.1475C184.38 52.2407 183.195 54.384 182.116 56.5886C181.031 58.7932 180.045 61.0256 179.159 63.2969C178.761 64.3658 178.373 65.4458 177.997 66.5314C177.62 67.6226 177.233 68.7248 176.834 69.8383C177.183 69.9719 177.449 69.8605 177.626 69.5042Z" fill="#FC4B3E"/>
<path d="M205.438 78.7102L207.365 76.9064C207.808 76.5501 208.217 76.1604 208.594 75.7373C208.97 75.3142 209.336 74.9023 209.69 74.5014L213.537 70.5655C213.626 70.4764 213.715 70.3874 213.803 70.2983C213.892 70.2092 214.025 70.1201 214.202 70.0311C214.335 69.8975 214.523 69.8975 214.766 70.0311C215.01 70.1647 215.132 70.3428 215.132 70.5655C215.132 70.6991 215.054 70.8327 214.899 70.9663C214.744 71.1 214.622 71.2113 214.534 71.3004C214.047 71.7457 213.405 72.4027 212.607 73.2711C211.81 74.1396 211.035 74.9301 210.282 75.6427C209.795 76.1326 209.319 76.6225 208.854 77.1124C208.389 77.6023 207.913 78.0922 207.426 78.5821L206.164 79.651L203.573 81.9892C202.82 82.7017 202.001 83.3364 201.115 83.8931C200.229 84.4498 199.321 84.9731 198.391 85.463C197.992 85.6857 197.572 85.8639 197.129 85.9975C196.686 86.1311 196.243 86.2424 195.8 86.3315C194.604 86.4651 193.807 85.8639 193.409 84.5278C193.187 83.637 193.143 82.5681 193.276 81.3211C193.453 79.6733 193.752 78.0421 194.173 76.4165C194.593 74.7909 195.07 73.2043 195.601 71.6455C196.31 69.5968 197.074 67.576 197.893 65.5718C198.712 63.5677 199.587 61.6359 200.517 59.7654L201.779 57.0264C201.691 56.9818 201.602 56.9262 201.513 56.8594C201.425 56.7926 201.336 56.7592 201.248 56.7592C199.919 56.7146 198.59 56.7369 197.267 56.826C195.939 56.915 194.654 57.1377 193.42 57.494C192.578 57.7167 191.803 57.995 191.095 58.3291C190.386 58.6631 189.722 59.0973 189.102 59.6318C188.57 59.4536 188.437 59.1641 188.703 58.7633C188.792 58.5852 188.914 58.3847 189.069 58.1621C189.224 57.9394 189.39 57.7835 189.567 57.6944C190.497 57.2045 191.449 56.7926 192.423 56.4585C193.398 56.1245 194.394 55.913 195.413 55.8239C196.431 55.6457 197.472 55.5121 198.535 55.4231C199.598 55.334 200.661 55.3117 201.718 55.3562C201.851 55.4008 201.984 55.4119 202.117 55.3896C202.25 55.3674 202.427 55.334 202.648 55.2894L204.641 51.3535C204.73 51.5317 204.818 51.6764 204.907 51.7877C204.995 51.8991 205.04 51.9993 205.04 52.0884C204.907 52.7119 204.708 53.2909 204.442 53.8253C204.353 54.048 204.265 54.2707 204.176 54.4933C204.088 54.716 203.977 54.961 203.844 55.2282C204.863 55.4509 205.837 55.5845 206.767 55.629C207.697 55.6736 208.627 55.6736 209.557 55.629C214.069 55.4954 218.453 54.5824 222.699 52.89C222.921 52.7564 223.153 52.6673 223.397 52.6228C223.64 52.5783 223.873 52.5115 224.094 52.4224C224.36 52.6451 224.471 52.8455 224.427 53.0236C224.382 53.2018 224.272 53.3354 224.094 53.4245C223.652 53.7362 223.209 53.9589 222.766 54.0925C220.419 55.0278 218.044 55.7515 215.63 56.2637C213.216 56.7759 210.686 57.0097 208.029 56.9651C207.232 56.9206 206.435 56.9095 205.638 56.9317C204.84 56.954 203.977 56.9651 203.047 56.9651C202.914 57.1878 202.77 57.4328 202.615 57.7C202.46 57.9672 202.294 58.279 202.117 58.6353C201.054 60.8176 200.046 62.9831 199.094 65.1432C198.142 67.3032 197.267 69.5133 196.47 71.7847C195.584 74.546 194.831 77.3908 194.211 80.3302C194.079 81.1318 194.056 82.0894 194.145 83.2028C194.234 84.0044 194.477 84.5278 194.876 84.7727C195.274 85.0177 195.872 85.0288 196.669 84.8061C196.891 84.717 197.123 84.628 197.367 84.5389C197.611 84.4498 197.843 84.3607 198.064 84.2717C198.95 83.8263 199.836 83.3364 200.722 82.802C201.607 82.2675 202.427 81.644 203.18 80.9314L205.505 78.8605L205.438 78.7102Z" fill="#FC4B3E"/>
<path d="M215.26 78.0496C215.039 77.4706 214.861 76.9918 214.729 76.6132C214.596 76.2347 214.463 75.8673 214.33 75.511C213.843 73.9076 213.765 72.399 214.098 70.9738C214.43 69.5486 215.105 68.1958 216.124 66.9043C216.567 66.4144 217.098 65.9913 217.718 65.635C218.205 65.3232 218.714 65.2341 219.246 65.3677C219.777 65.5014 220.242 65.7908 220.641 66.2362C220.73 66.4144 220.774 66.5702 220.774 66.7038C220.774 66.8374 220.73 67.1715 220.641 67.7059C220.464 67.6168 220.309 67.5278 220.176 67.4387C220.043 67.3496 219.91 67.2605 219.777 67.1715C218.936 66.5925 218.139 66.5925 217.386 67.1715C217.209 67.3051 217.054 67.4498 216.921 67.6057C216.788 67.7616 216.655 67.9063 216.522 68.0399C215.637 69.1979 215.094 70.534 214.895 72.0427C214.695 73.5569 215.171 75.1602 216.323 76.8471C216.5 76.758 216.688 76.6578 216.888 76.5464C217.087 76.4351 217.275 76.3126 217.452 76.179C219.091 75.0656 220.724 74.0301 222.363 73.0726C224.001 72.115 225.723 71.2577 227.539 70.5006C227.76 70.4115 227.982 70.3224 228.203 70.2334C228.425 70.1443 228.69 70.2111 229 70.4338C228.912 70.5674 228.823 70.7233 228.735 70.9014C228.646 71.0796 228.535 71.2132 228.402 71.3023C228.092 71.5249 227.771 71.7142 227.439 71.8701C227.107 72.026 226.764 72.1707 226.409 72.3043C224.859 73.0169 223.387 73.8074 221.997 74.6759C220.602 75.5444 219.218 76.4462 217.851 77.3815C217.718 77.4706 217.607 77.5597 217.519 77.6487C217.43 77.7378 217.342 77.8269 217.253 77.9159C217.164 78.2277 217.198 78.4726 217.353 78.6508C217.508 78.8289 217.652 79.0294 217.784 79.252C218.404 80.1428 218.781 81.0224 218.914 81.8908C219.047 82.7593 219.002 83.5721 218.781 84.3292C218.559 85.0863 218.216 85.7878 217.751 86.4336C217.286 87.0794 216.766 87.6472 216.19 88.1371C215.039 89.0278 213.71 89.6959 212.21 90.1413C211.811 90.2303 211.402 90.286 210.981 90.3083C210.56 90.3305 210.15 90.3194 209.752 90.2749C208.246 90.0522 207.604 89.1837 207.825 87.6695C208.047 86.1107 208.6 84.8247 209.486 83.8003C210.239 82.9542 211.014 82.1302 211.811 81.3286C212.608 80.5269 213.383 79.7252 214.136 78.9236C214.313 78.7454 214.491 78.5896 214.668 78.4559C214.839 78.3112 215.039 78.1832 215.26 78.0496ZM216.257 78.9793C216.035 79.0683 215.88 79.1129 215.792 79.1129C215.703 79.1129 215.637 79.1351 215.592 79.1797C214.485 80.0704 213.444 80.9945 212.475 81.9521C211.501 82.9096 210.593 83.9674 209.752 85.1253C209.53 85.4371 209.364 85.76 209.254 86.094C209.143 86.428 208.999 86.7732 208.822 87.1295C208.6 87.5303 208.622 87.92 208.888 88.2986C209.154 88.6771 209.486 88.9109 209.885 89C210.682 89.0891 211.413 89.0223 212.077 88.7996C212.608 88.6214 213.118 88.4099 213.605 88.1649C214.092 87.92 214.579 87.6862 215.066 87.4635C215.642 87.1517 216.118 86.7732 216.495 86.3278C216.871 85.8824 217.214 85.3925 217.524 84.8581C218.144 83.7001 218.211 82.6535 217.724 81.7183C217.502 81.2284 217.27 80.7719 217.026 80.3488C216.777 79.9257 216.522 79.4692 216.257 78.9793Z" fill="#FC4B3E"/>
<path d="M84.6494 129.996C84.6494 131.727 83.4039 133.331 81.3666 133.331C81.3666 133.331 77.8181 133.331 77.4859 133.331C77.187 133.331 77.0375 133.03 77.4527 132.93C77.735 132.863 78.2499 132.495 78.2499 131.644V127.975C78.2499 127.04 77.6188 126.656 77.3199 126.594C76.9379 126.494 76.9877 126.16 77.4361 126.16C77.4361 126.16 79.9051 126.16 80.6525 126.16C83.1049 126.166 84.6494 127.162 84.6494 129.996ZM83.7858 129.862C83.7858 127.229 81.6656 126.661 80.4034 126.628C79.3073 126.594 79.1412 127.429 79.1412 127.864V131.616C79.1412 132.434 79.955 132.913 80.73 132.913C81.7984 132.913 83.7858 132.145 83.7858 129.862Z" fill="#FC4B3E"/>
<path d="M91.2589 129.961C91.2589 130.112 90.9102 130.863 90.1296 130.863C89.6646 130.863 89.5317 130.562 89.1663 130.613C88.5851 130.696 88.4024 131.013 87.6439 131.013C87.0959 131.013 86.6475 130.713 86.6475 129.894C86.6475 128.464 88.2363 127.879 88.3359 127.846C88.7843 127.612 89.349 127.428 89.349 126.86C89.349 126.309 89.349 125.675 88.5352 125.675C87.2232 125.675 87.7547 127.339 86.88 127.339C86.6641 127.339 86.6143 127.189 86.6143 126.988C86.6143 126.671 87.4779 125.224 88.9172 125.224C90.113 125.224 90.1296 126.092 90.1296 126.543V129.527C90.1296 129.727 90.1794 130.078 90.495 130.078C90.8769 130.078 90.8935 129.844 91.0762 129.844C91.1427 129.844 91.2589 129.861 91.2589 129.961ZM89.1885 129.109V128.675C89.1885 128.291 88.7899 128.291 88.6072 128.408C88.2917 128.592 87.8432 128.892 87.8432 129.494C87.8432 129.761 87.9927 130.095 88.3415 130.095C88.956 130.095 89.1885 129.494 89.1885 129.109Z" fill="#FC4B3E"/>
<path d="M97.0775 126.317C97.0775 126.567 96.6623 126.434 96.4297 127.085L94.0105 133.899C93.7946 134.5 93.5787 134.834 93.1137 134.834C92.6155 134.834 92.4328 134.567 92.4328 134.3C92.4328 133.916 92.6487 133.799 92.9476 133.799C93.1802 133.799 93.3462 133.782 93.4459 133.715C93.7614 133.532 94.1434 132.268 94.16 131.967C94.1766 131.784 94.1434 131.533 94.077 131.316L92.7483 127.018C92.6321 126.617 91.9512 126.584 91.9512 126.35C91.9512 126.15 92.1671 126.2 92.3664 126.2C92.9144 126.2 93.4127 126.2 94.1545 126.2C94.3206 126.2 94.3704 126.233 94.3704 126.367C94.3704 126.617 93.54 126.734 93.7559 127.436L94.2541 129.1C94.3538 129.434 94.5697 129.635 94.7524 129.635C94.935 129.635 95.1842 129.368 95.3004 129.034L95.616 128.148C95.699 127.814 95.9315 127.297 95.8485 126.963C95.7322 126.478 95.2174 126.595 95.2174 126.311C95.2174 126.228 95.2838 126.194 95.4167 126.194C95.4831 126.194 96.629 126.194 96.8228 126.194C96.9612 126.2 97.0775 126.233 97.0775 126.317Z" fill="#FC4B3E"/>
<path d="M110.768 126.148C110.768 126.232 110.618 126.315 110.402 126.315C110.286 126.332 109.987 126.566 109.854 126.749C109.854 126.749 108.974 128.002 108.415 128.798C108.133 129.199 108.299 129.516 108.398 129.65C108.681 130.034 109.212 130.719 109.672 130.719C109.937 130.719 110.303 130.552 110.402 130.552C110.535 130.552 110.651 130.602 110.651 130.685C110.651 131.053 110.103 131.487 109.439 131.487C108.791 131.487 108.243 130.886 108.011 130.618C107.895 130.485 107.479 130.318 107.23 130.618C106.649 131.32 105.852 131.604 105.16 131.604C104.446 131.604 103.206 131.119 103.206 129.505C103.206 127.64 105.176 127.172 105.176 126.939C105.176 126.888 104.595 126.204 104.595 125.541C104.595 124.639 105.06 123.76 106.151 123.76C106.981 123.76 107.59 124.244 107.59 125.163C107.59 125.981 107.059 126.332 106.726 126.56C106.444 126.76 106.427 127.228 106.66 127.529L107.291 128.347C107.573 128.714 108.055 128.531 108.254 128.264L108.885 127.412C109.035 127.211 109.218 126.927 109.201 126.727C109.184 126.56 109.035 126.41 108.935 126.393C108.67 126.36 108.404 126.259 108.404 126.126C108.404 126.059 108.503 125.992 108.603 125.992C109.301 125.992 109.815 125.992 110.507 125.992C110.668 125.981 110.768 125.998 110.768 126.148ZM107.053 129.811C107.053 129.511 106.97 129.243 106.837 129.076C106.339 128.442 106.289 128.325 105.924 127.874C105.641 127.523 104.994 127.557 104.728 127.774C104.296 128.124 104.064 128.442 104.064 129.171C104.064 130.09 104.628 131.069 105.652 131.069C106.212 131.08 107.036 130.546 107.053 129.811ZM106.821 125.029C106.821 124.645 106.571 124.244 106.106 124.244C105.841 124.244 105.359 124.311 105.359 124.996C105.359 125.697 105.94 126.315 106.04 126.315C106.306 126.115 106.821 125.814 106.821 125.029Z" fill="#FC4B3E"/>
<path d="M125.15 126.116C124.569 126.249 124.32 126.817 124.32 127.368V132.601C124.32 133.219 124.087 133.303 123.722 132.885L121.004 129.818C120.157 128.849 119.581 128.799 119.249 128.832C118.551 128.899 118.352 129.868 118.352 130.297C118.352 130.297 118.352 130.363 118.352 131.365C118.352 132.017 118.9 132.384 119.265 132.468C119.863 132.601 119.747 132.919 119.265 132.919C118.092 132.919 117.643 132.919 117.062 132.919C116.564 132.919 116.481 132.635 117.029 132.518C117.593 132.401 117.859 131.866 117.859 131.365C117.859 129.968 117.859 127.513 117.859 127.429C117.859 126.611 117.477 126.277 116.946 126.194C116.663 126.143 116.364 125.776 116.929 125.776C117.294 125.776 118.175 125.776 118.451 125.776C118.684 125.776 118.8 125.96 118.867 126.043L122.648 130.291C122.98 130.658 123.295 130.759 123.511 130.642C123.744 130.525 123.877 130.157 123.877 129.79V127.374C123.877 126.839 123.644 126.238 122.913 126.105C122.482 126.021 122.698 125.771 122.864 125.771C123.594 125.771 124.702 125.771 125.266 125.771C125.482 125.782 125.532 126.032 125.15 126.116Z" fill="#FC4B3E"/>
<path d="M129.263 133.931C128.698 133.931 127.984 133.931 127.226 133.931C127.027 133.931 126.811 133.697 127.226 133.547C127.591 133.414 127.923 133.079 127.923 132.528V127.713C127.923 127.178 127.342 127.262 127.342 127.011C127.342 126.828 127.708 126.744 127.957 126.56C128.222 126.36 128.289 126.343 128.505 126.109C128.621 125.976 128.853 126.109 128.804 126.31C128.737 126.544 128.754 126.844 128.754 127.078V132.545C128.754 133.079 128.92 133.38 129.319 133.547C129.612 133.681 129.629 133.931 129.263 133.931ZM129.064 123.532C129.064 123.899 128.698 124.25 128.333 124.25C127.968 124.25 127.619 123.899 127.619 123.532C127.619 123.165 127.968 122.764 128.333 122.764C128.698 122.764 129.064 123.165 129.064 123.532Z" fill="#FC4B3E"/>
<path d="M136.686 126.034C136.686 126.285 136.537 126.401 136.387 126.401C136.238 126.401 136.039 126.401 135.939 126.485C135.806 126.585 135.773 126.702 135.773 127.003C135.773 127.203 135.789 128.918 133.968 129.101C133.387 129.168 133.237 129.435 133.237 129.669C133.237 129.803 133.37 130.204 134.101 130.204C135.396 130.204 136.321 130.805 136.387 131.802C136.504 133.366 135.109 134 133.337 133.934C131.798 133.884 131.217 133.132 131.217 132.598C131.217 131.629 132.031 131.412 132.114 130.816C132.197 130.181 131.831 129.981 131.831 129.68C131.831 129.313 132.313 129.179 132.446 128.762C132.562 128.378 132.197 127.893 132.197 127.064C132.197 125.861 132.878 125.082 133.952 125.082C134.35 125.082 134.666 125.232 134.948 125.383C135.247 125.55 135.612 125.7 136.077 125.7H136.376C136.636 125.7 136.686 125.85 136.686 126.034ZM135.856 132.13C135.706 131.228 134.594 130.961 133.619 130.961C133.337 130.961 133.071 131.011 132.789 131.195C132.341 131.495 132.108 131.996 132.108 132.397C132.108 133.115 132.789 133.499 133.448 133.499C135.275 133.499 135.972 132.815 135.856 132.13ZM134.666 127.131C134.666 126.63 134.583 125.861 134.001 125.861C133.387 125.861 133.32 126.513 133.32 126.997C133.32 127.431 133.354 128.283 133.985 128.283C134.483 128.283 134.666 127.749 134.666 127.131Z" fill="#FC4B3E"/>
<path d="M143.512 131.532C142.964 131.532 141.99 131.532 141.442 131.532C141.293 131.532 141.077 131.265 141.525 131.165C141.874 131.081 142.023 130.647 142.023 130.196V128.264C142.023 127.663 141.591 127.095 140.994 127.095C140.196 127.095 139.731 127.697 139.731 128.248V130.28C139.731 130.714 139.931 131.031 140.379 131.131C140.778 131.215 140.711 131.532 140.379 131.532C139.881 131.532 138.89 131.532 138.275 131.532C138.06 131.532 137.844 131.248 138.292 131.131C138.74 131.015 138.907 130.647 138.907 130.263V121.578C138.907 121.328 138.292 121.261 138.292 121.077C138.292 120.96 138.325 120.894 138.358 120.86C138.425 120.81 139.388 120.393 139.488 120.393C139.687 120.393 139.72 120.56 139.72 120.91V124.362C139.72 124.896 139.986 125.23 140.202 125.414C140.501 125.665 140.733 125.715 141.448 125.731C142.876 125.765 142.937 127.262 142.937 127.68V130.196C142.937 130.797 143.252 131.065 143.535 131.165C143.861 131.282 143.811 131.532 143.512 131.532Z" fill="#FC4B3E"/>
<path d="M148.14 125.313C148.14 125.546 148.057 125.663 147.875 125.663H146.994C146.662 125.663 146.38 125.864 146.38 126.415C146.38 127.166 146.38 128.864 146.38 129.616C146.38 130.2 146.529 130.752 147.177 130.752C147.542 130.752 147.725 130.534 147.908 130.534C147.991 130.534 148.041 130.601 148.041 130.701C148.041 130.902 147.692 131.42 146.795 131.42C145.915 131.42 145.516 131.019 145.516 129.905C145.516 128.92 145.516 127.372 145.516 126.287C145.516 126.086 145.334 125.736 145.001 125.736C144.935 125.736 144.835 125.619 144.852 125.569C144.935 125.368 145.251 125.235 145.549 124.934C145.898 124.583 146.048 124.049 146.23 124.049C146.363 124.049 146.463 124.149 146.463 124.349C146.463 124.834 146.679 125.018 147.21 125.018H147.875C147.974 125.012 148.14 125.029 148.14 125.313Z" fill="#FC4B3E"/>
<path d="M66.4834 17.9999V6.26385H69.1294V10.7819H73.1794V6.26385H75.8434V17.9999H73.1794V13.1039H69.1294V17.9999H66.4834Z" fill="#FC4B3E"/>
<path d="M83.3823 18.2159C82.5903 18.2159 81.8643 18.0779 81.2043 17.8019C80.5563 17.5139 79.9983 17.1059 79.5303 16.5779C79.0623 16.0499 78.6963 15.4079 78.4323 14.6519C78.1803 13.8959 78.0543 13.0379 78.0543 12.0779C78.0543 11.1179 78.1803 10.2659 78.4323 9.52185C78.6963 8.76585 79.0623 8.13585 79.5303 7.63185C79.9983 7.11585 80.5563 6.72585 81.2043 6.46185C81.8643 6.18585 82.5903 6.04785 83.3823 6.04785C84.1743 6.04785 84.8943 6.18585 85.5423 6.46185C86.2023 6.72585 86.7663 7.11585 87.2343 7.63185C87.7023 8.14785 88.0623 8.78385 88.3143 9.53985C88.5783 10.2839 88.7103 11.1299 88.7103 12.0779C88.7103 13.0379 88.5783 13.8959 88.3143 14.6519C88.0623 15.4079 87.7023 16.0499 87.2343 16.5779C86.7663 17.1059 86.2023 17.5139 85.5423 17.8019C84.8943 18.0779 84.1743 18.2159 83.3823 18.2159ZM83.3823 15.9299C84.1863 15.9299 84.8223 15.5879 85.2903 14.9039C85.7583 14.2079 85.9923 13.2659 85.9923 12.0779C85.9923 10.9019 85.7583 9.98385 85.2903 9.32385C84.8223 8.66385 84.1863 8.33385 83.3823 8.33385C82.5783 8.33385 81.9423 8.66385 81.4743 9.32385C81.0063 9.98385 80.7723 10.9019 80.7723 12.0779C80.7723 13.2659 81.0063 14.2079 81.4743 14.9039C81.9423 15.5879 82.5783 15.9299 83.3823 15.9299Z" fill="#FC4B3E"/>
<path d="M90.917 17.9999V6.26385H93.635L96.695 12.0959L97.847 14.6879H97.919C97.859 14.0639 97.787 13.3679 97.703 12.5999C97.631 11.8319 97.595 11.0999 97.595 10.4039V6.26385H100.115V17.9999H97.397L94.337 12.1499L93.185 9.59385H93.113C93.173 10.2419 93.239 10.9379 93.311 11.6819C93.395 12.4259 93.437 13.1459 93.437 13.8419V17.9999H90.917Z" fill="#FC4B3E"/>
<path d="M108.072 18.2159C107.268 18.2159 106.512 18.0899 105.804 17.8379C105.108 17.5739 104.502 17.1899 103.986 16.6859C103.47 16.1819 103.062 15.5579 102.762 14.8139C102.474 14.0579 102.33 13.1879 102.33 12.2039C102.33 11.2319 102.48 10.3679 102.78 9.61185C103.08 8.84385 103.488 8.19585 104.004 7.66785C104.532 7.13985 105.144 6.73785 105.84 6.46185C106.536 6.18585 107.274 6.04785 108.054 6.04785C108.906 6.04785 109.638 6.20385 110.25 6.51585C110.862 6.82785 111.36 7.18185 111.744 7.57785L110.358 9.26985C110.058 9.00585 109.74 8.78385 109.404 8.60385C109.068 8.42385 108.648 8.33385 108.144 8.33385C107.688 8.33385 107.268 8.42385 106.884 8.60385C106.512 8.77185 106.188 9.01785 105.912 9.34185C105.636 9.66585 105.42 10.0619 105.264 10.5299C105.12 10.9979 105.048 11.5259 105.048 12.1139C105.048 13.3259 105.318 14.2679 105.858 14.9399C106.41 15.5999 107.238 15.9299 108.342 15.9299C108.582 15.9299 108.816 15.8999 109.044 15.8399C109.272 15.7799 109.458 15.6899 109.602 15.5699V13.5539H107.658V11.3939H111.942V16.7939C111.534 17.1899 110.994 17.5259 110.322 17.8019C109.65 18.0779 108.9 18.2159 108.072 18.2159Z" fill="#FC4B3E"/>
<path d="M117.97 17.9999V6.26385H120.616V11.0699H120.688L124.18 6.26385H127.096L123.55 10.9439L127.744 17.9999H124.846L121.984 13.0499L120.616 14.8499V17.9999H117.97Z" fill="#FC4B3E"/>
<path d="M133.304 18.2159C132.512 18.2159 131.786 18.0779 131.126 17.8019C130.478 17.5139 129.92 17.1059 129.452 16.5779C128.984 16.0499 128.618 15.4079 128.354 14.6519C128.102 13.8959 127.976 13.0379 127.976 12.0779C127.976 11.1179 128.102 10.2659 128.354 9.52185C128.618 8.76585 128.984 8.13585 129.452 7.63185C129.92 7.11585 130.478 6.72585 131.126 6.46185C131.786 6.18585 132.512 6.04785 133.304 6.04785C134.096 6.04785 134.816 6.18585 135.464 6.46185C136.124 6.72585 136.688 7.11585 137.156 7.63185C137.624 8.14785 137.984 8.78385 138.236 9.53985C138.5 10.2839 138.632 11.1299 138.632 12.0779C138.632 13.0379 138.5 13.8959 138.236 14.6519C137.984 15.4079 137.624 16.0499 137.156 16.5779C136.688 17.1059 136.124 17.5139 135.464 17.8019C134.816 18.0779 134.096 18.2159 133.304 18.2159ZM133.304 15.9299C134.108 15.9299 134.744 15.5879 135.212 14.9039C135.68 14.2079 135.914 13.2659 135.914 12.0779C135.914 10.9019 135.68 9.98385 135.212 9.32385C134.744 8.66385 134.108 8.33385 133.304 8.33385C132.5 8.33385 131.864 8.66385 131.396 9.32385C130.928 9.98385 130.694 10.9019 130.694 12.0779C130.694 13.2659 130.928 14.2079 131.396 14.9039C131.864 15.5879 132.5 15.9299 133.304 15.9299Z" fill="#FC4B3E"/>
<path d="M140.839 17.9999V6.26385H143.557L146.617 12.0959L147.769 14.6879H147.841C147.781 14.0639 147.709 13.3679 147.625 12.5999C147.553 11.8319 147.517 11.0999 147.517 10.4039V6.26385H150.037V17.9999H147.319L144.259 12.1499L143.107 9.59385H143.035C143.095 10.2419 143.161 10.9379 143.233 11.6819C143.317 12.4259 143.359 13.1459 143.359 13.8419V17.9999H140.839Z" fill="#FC4B3E"/>
<path d="M157.994 18.2159C157.19 18.2159 156.434 18.0899 155.726 17.8379C155.03 17.5739 154.424 17.1899 153.908 16.6859C153.392 16.1819 152.984 15.5579 152.684 14.8139C152.396 14.0579 152.252 13.1879 152.252 12.2039C152.252 11.2319 152.402 10.3679 152.702 9.61185C153.002 8.84385 153.41 8.19585 153.926 7.66785C154.454 7.13985 155.066 6.73785 155.762 6.46185C156.458 6.18585 157.196 6.04785 157.976 6.04785C158.828 6.04785 159.56 6.20385 160.172 6.51585C160.784 6.82785 161.282 7.18185 161.666 7.57785L160.28 9.26985C159.98 9.00585 159.662 8.78385 159.326 8.60385C158.99 8.42385 158.57 8.33385 158.066 8.33385C157.61 8.33385 157.19 8.42385 156.806 8.60385C156.434 8.77185 156.11 9.01785 155.834 9.34185C155.558 9.66585 155.342 10.0619 155.186 10.5299C155.042 10.9979 154.97 11.5259 154.97 12.1139C154.97 13.3259 155.24 14.2679 155.78 14.9399C156.332 15.5999 157.16 15.9299 158.264 15.9299C158.504 15.9299 158.738 15.8999 158.966 15.8399C159.194 15.7799 159.38 15.6899 159.524 15.5699V13.5539H157.58V11.3939H161.864V16.7939C161.456 17.1899 160.916 17.5259 160.244 17.8019C159.572 18.0779 158.822 18.2159 157.994 18.2159Z" fill="#FC4B3E"/>
</svg>
