<svg width="1125" height="750" viewBox="0 0 1125 750" fill="none" xmlns="http://www.w3.org/2000/svg">
<rect width="375" height="250" fill="black" transform="scale(3)"/>
<rect width="375" height="250" transform="scale(3)" fill="black"/>
<rect width="32" height="28" rx="3" transform="translate(420 312) scale(3)" fill="#AE8328" stroke="#F2F2F2"/>
<path d="M3.33125 4.8V16H4.75525V7.056L8.77125 14.816H9.71525L13.6993 7.056L13.7153 16H15.1552V4.8H13.3152L9.25125 12.672L5.15525 4.8H3.33125ZM17.6585 4.8V6.192H20.2025V16H21.7385V4.8H17.6585Z" transform="translate(429 324) scale(3)" fill="#F2F2F2"/>
<path d="M9.07858 2.74018V20.1277L6.34072 15.8843C5.39166 14.4134 3.37907 14.0854 2.01205 15.1788C0.859061 16.1011 0.563765 17.7329 1.32042 19.0007L7.33284 29.0749C8.41551 30.889 10.3724 32 12.485 32H25C28.3137 32 31 29.3137 31 26V18.3012V13.9402C31 12.4268 29.7732 11.2 28.2598 11.2C26.7465 11.2 25.5196 12.4268 25.5196 13.9402V13.4522C25.5196 11.9388 24.2928 10.712 22.7795 10.712C21.2661 10.712 20.0393 11.9388 20.0393 13.4522V12.9411C20.0393 11.4278 18.8125 10.201 17.2991 10.201C15.7858 10.201 14.5589 11.4278 14.5589 12.9411V2.74018C14.5589 1.22682 13.3321 0 11.8188 0C10.3054 0 9.07858 1.22682 9.07858 2.74018Z" transform="translate(456 381) scale(3)" fill="black"/>
<path d="M9.07858 20.1277V2.74018C9.07858 1.22682 10.3054 0 11.8188 0V0C13.3321 0 14.5589 1.22682 14.5589 2.74018V14V12.9411C14.5589 11.4278 15.7858 10.201 17.2991 10.201V10.201C18.8125 10.201 20.0393 11.4278 20.0393 12.9411V14V13.4522C20.0393 11.9388 21.2661 10.712 22.7795 10.712V10.712C24.2928 10.712 25.5196 11.9388 25.5196 13.4522V14V13.9402C25.5196 12.4268 26.7465 11.2 28.2598 11.2V11.2C29.7732 11.2 31 12.4268 31 13.9402V18.3012V26C31 29.3137 28.3137 32 25 32H12.485C10.3724 32 8.41551 30.889 7.33284 29.0749L1.32042 19.0007C0.563765 17.7329 0.859061 16.1011 2.01205 15.1788V15.1788C3.37907 14.0854 5.39166 14.4134 6.34072 15.8843L9.07858 20.1277Z" transform="translate(456 381) scale(3)" stroke="white" stroke-linecap="round" stroke-linejoin="round"/>
<rect x="0.5" y="0.5" width="31" height="27" rx="2.5" transform="translate(612 312) scale(3)" fill="#AE8328" stroke="#F2F2F2"/>
<path d="M9.52447 1.46353C9.67415 1.00287 10.3259 1.00287 10.4755 1.46353L12.1329 6.56434C12.1998 6.77035 12.3918 6.90983 12.6084 6.90983L17.9717 6.90983C18.4561 6.90983 18.6575 7.52964 18.2656 7.81434L13.9266 10.9668C13.7514 11.0941 13.678 11.3198 13.745 11.5258L15.4023 16.6266C15.552 17.0873 15.0248 17.4704 14.6329 17.1857L10.2939 14.0332C10.1186 13.9059 9.88135 13.9059 9.70611 14.0332L5.3671 17.1857C4.97524 17.4704 4.448 17.0873 4.59768 16.6266L6.25503 11.5258C6.32197 11.3198 6.24864 11.0941 6.07339 10.9668L1.73438 7.81434C1.34253 7.52964 1.54391 6.90983 2.02828 6.90983L7.39159 6.90983C7.6082 6.90983 7.80018 6.77035 7.86712 6.56434L9.52447 1.46353Z" transform="translate(630 325.5) scale(3)" stroke="#F2F2F2" stroke-linecap="round" stroke-linejoin="round"/>
</svg>
